<?xml version="1.0" encoding="utf-8"?>
<!-- Generator: Adobe Illustrator 17.1.0, SVG Export Plug-In . SVG Version: 6.00 Build 0)  -->
<!DOCTYPE svg PUBLIC "-//W3C//DTD SVG 1.1//EN" "http://www.w3.org/Graphics/SVG/1.1/DTD/svg11.dtd">
<svg version="1.1" id="Layer_1" xmlns="http://www.w3.org/2000/svg" xmlns:xlink="http://www.w3.org/1999/xlink" x="0px" y="0px"
	 viewBox="0 0 536 792" enable-background="new 0 0 536 792" xml:space="preserve">
<g>
	<g>
		<g>
			<path d="M31.9,598.5H69l79,99.8v-79.4c0-6.5,0.6-9.7-9.6-9.7h-4.6v-10.7h41.1v10.7h-4.6c-8.4,0-8.7,2.1-9.1,8.6
				c0,0.4,0,0.7,0,1.1v112.5h-28.1l-74-88.4v67.6c0,0.6,0.1,1.2,0.1,1.5c0.5,5.8,1,8,8.8,9.2l4.2,0.7l0.1,9l-40.2,0v-8.7l4.6-1
				c9.7-1.6,9.1-6.5,9.3-9.5c0-0.4,0-0.9,0-1.3v-91.7v-2v-0.5c-0.7-4.5-0.2-7.2-8.7-7.2h-5.4L31.9,598.5z"/>
			<path d="M236.9,597.6c7.1-0.5,14-0.5,21.1,0c39.9,3.4,64.1,28.3,64.1,67c0,38.7-24.2,63.5-64.1,67c-7.1,0.5-14,0.5-21.1,0
				c-39.9-3.4-64.1-28.3-64.1-67C172.8,625.8,197,601,236.9,597.6z M247.5,721.1c35.3,0.5,40.3-19,40.7-47.8
				c0.7-43.3-6.8-63.7-31.8-65.5c-37.4-2.8-49.9,12.9-49.1,56.1C208,704.3,211,720.6,247.5,721.1z"/>
			<path d="M378.1,598.4v10.7h-4.6c-8.7,0-10.7,3.3-11.1,10.1c0,0.7-0.1-0.8-0.1-0.4v98.6l10.2,0.5c2.5,0.2,10.1,0.2,12.7,0
				c16.4-1.3,19.2-4.7,24.6-18.7c0.5-1.3,0.9-2.5,1.3-4h9.1l-4,35.7h-97.1v-9.7h4.6c10.7-2.5,10.8-7.9,11.1-13.1v-1.6v-87.7v-1.6
				v-0.9c-0.7-4.7-2.4-7.2-10.6-7.2h-4.9v-10.7H378.1z"/>
		</g>
		<path d="M507,634.9l1.9-25.2c0,0,1.1-9.2-16.8-10.5c0,0-27.8-1.4-39.1,2.2c0,0-31.9,6.9-31.5,38.8c0,0-0.7,28.6,29.9,34.8
			c0,0,17.8,2.6,29.3,5.7c0,0,22.7,7.7,7.7,29.3c0,0-4.4,8-23.7,9.9c0,0-31,3.6-30-26.9l-8.5-1l-1.1,32.4c0,0,13.3,10.7,48.8,8.4
			c0,0,38-1.6,43.3-35.7c0,0,9.5-40.7-27-44.2c0,0-28.7-1.1-36.2-6.2c0,0-11.6-7.4-5.7-23.7c0,0,5.3-13.5,25.1-12
			c0,0,27.6,0.2,23.8,23.8H507z"/>
	</g>
	<path d="M506.6,66.8c0,0-2-31.8-32.3-32c-24.7-0.2-397.4-0.1-397.4-0.1c-26-0.5-45.4,7.3-45.8,31.1l1,467.9c0,0,1.4,66.7,68.5,45
		c15.9-6.3,14.4-5.8,226.6-158c0,0,9.3-6.7,13.9,0.5l95.7,144.2c23.4,29.4,64.8,23.5,70-17.2L506.6,66.8z M464.6,531.8L363.7,376.4
		c-12.2-14.9-33.5-12.9-47.3-5.7c-9.8,6.7-232.6,163.1-232.6,163.1s-11.7,6.1-12.9-7V82.5c0,0,1.2-6.4,8.2-6.1H457
		c0,0,12-1,11.4,11.4l0.2,439.2C468.6,527,468.4,536.8,464.6,531.8z"/>
	<path d="M427.7,446.4c15.8-23.6,25.1-52.1,25.1-82.7c0-82.1-66.6-148.7-148.7-148.7c-82.1,0-148.7,66.6-148.7,148.7
		c0,31.1,9,60.3,25.3,84.2L305.1,362c24-18.8,57.6-17,75.1,11.3L427.7,446.4z"/>
</g>
</svg>
