<?xml version="1.0" encoding="utf-8"?>
<!-- Generator: Adobe Illustrator 18.1.0, SVG Export Plug-In . SVG Version: 6.00 Build 0)  -->
<!DOCTYPE svg PUBLIC "-//W3C//DTD SVG 1.1//EN" "http://www.w3.org/Graphics/SVG/1.1/DTD/svg11.dtd">
<svg version="1.1" id="Layer_1" xmlns="http://www.w3.org/2000/svg" xmlns:xlink="http://www.w3.org/1999/xlink" x="0px" y="0px"
	 viewBox="296 206 200 200" enable-background="new 296 206 200 200" xml:space="preserve">
<g>
	<g>
		<g>
			<path fill="#FFFFFF" d="M331.6,362.7h9.9l21.1,26.7v-21.2c0-1.7,0.2-2.6-2.6-2.6h-1.2v-2.9h11v2.9h-1.2c-2.2,0-2.3,0.6-2.4,2.3
				c0,0.1,0,0.2,0,0.3v30.1h-7.5l-19.8-23.6v18.1c0,0.2,0,0.3,0,0.4c0.1,1.6,0.3,2.1,2.4,2.5l1.1,0.2l0,2.4h-10.7v-2.3l1.2-0.3
				c2.6-0.4,2.4-1.7,2.5-2.5c0-0.1,0-0.2,0-0.3v-24.5v-0.5v-0.1c-0.2-1.2-0.1-1.9-2.3-1.9h-1.4L331.6,362.7z"/>
			<path fill="#FFFFFF" d="M386.4,362.4c1.9-0.1,3.7-0.1,5.6,0c10.7,0.9,17.1,7.6,17.1,17.9s-6.5,17-17.1,17.9
				c-1.9,0.1-3.7,0.1-5.6,0c-10.7-0.9-17.1-7.6-17.1-17.9C369.3,369.9,375.8,363.3,386.4,362.4z M389.3,395.4
				c9.4,0.1,10.8-5.1,10.9-12.8c0.2-11.6-1.8-17-8.5-17.5c-10-0.7-13.3,3.4-13.1,15C378.7,390.9,379.5,395.3,389.3,395.4z"/>
			<path fill="#FFFFFF" d="M424.2,362.6v2.9H423c-2.3,0-2.9,0.9-3,2.7c0,0.2,0-0.2,0-0.1v26.4l2.7,0.1c0.7,0.1,2.7,0.1,3.4,0
				c4.4-0.3,5.1-1.3,6.6-5c0.1-0.3,0.2-0.7,0.3-1.1h2.4l-1.1,9.5h-26v-2.6h1.2c2.9-0.7,2.9-2.1,3-3.5v-0.4v-23.4v-0.4v-0.2
				c-0.2-1.3-0.6-1.9-2.8-1.9h-1.3v-2.9L424.2,362.6L424.2,362.6z"/>
		</g>
		<path fill="#FFFFFF" d="M458.7,372.4l0.5-6.7c0,0,0.3-2.5-4.5-2.8c0,0-7.4-0.4-10.5,0.6c0,0-8.5,1.8-8.4,10.4c0,0-0.2,7.6,8,9.3
			c0,0,4.8,0.7,7.8,1.5c0,0,6.1,2.1,2.1,7.8c0,0-1.2,2.1-6.3,2.6c0,0-8.3,1-8-7.2l-2.3-0.3l-0.3,8.7c0,0,3.6,2.9,13,2.2
			c0,0,10.2-0.4,11.6-9.5c0,0,2.5-10.9-7.2-11.8c0,0-7.7-0.3-9.7-1.7c0,0-3.1-2-1.5-6.3c0,0,1.4-3.6,6.7-3.2c0,0,7.4,0.1,6.4,6.4
			L458.7,372.4L458.7,372.4z"/>
	</g>
	<path fill="#FFFFFF" d="M458.6,220.5c0,0-0.5-8.5-8.6-8.6c-6.6-0.1-106.2,0-106.2,0c-7-0.1-12.1,2-12.2,8.3l0.3,125.1
		c0,0,0.4,17.8,18.3,12c4.3-1.7,3.8-1.6,60.6-42.2c0,0,2.5-1.8,3.7,0.1l25.6,38.5c6.3,7.9,17.3,6.3,18.7-4.6L458.6,220.5z
		 M447.3,344.8l-27-41.5c-3.3-4-9-3.4-12.6-1.5c-2.6,1.8-62.2,43.6-62.2,43.6s-3.1,1.6-3.4-1.9V224.7c0,0,0.3-1.7,2.2-1.6h101
		c0,0,3.2-0.3,3,3l0.1,117.4C448.4,343.5,448.3,346.2,447.3,344.8z"/>
	<path fill="#FFFFFF" d="M437.5,322c4.2-6.3,6.7-13.9,6.7-22.1c0-21.9-17.8-39.8-39.8-39.8s-39.8,17.8-39.8,39.8
		c0,8.3,2.4,16.1,6.8,22.5l33.3-23c6.4-5,15.4-4.5,20.1,3L437.5,322z"/>
</g>
</svg>
