<?xml version="1.0" encoding="utf-8"?>
<!-- Generator: Adobe Illustrator 17.1.0, SVG Export Plug-In . SVG Version: 6.00 Build 0)  -->
<!DOCTYPE svg PUBLIC "-//W3C//DTD SVG 1.1//EN" "http://www.w3.org/Graphics/SVG/1.1/DTD/svg11.dtd">
<svg version="1.1" id="Layer_1" xmlns="http://www.w3.org/2000/svg" xmlns:xlink="http://www.w3.org/1999/xlink" x="0px" y="0px"
	 viewBox="0 0 504 504" enable-background="new 0 0 504 504" xml:space="preserve">
<polygon stroke="#000000" stroke-width="0.8511" points="417.5,285.4 338.3,239.7 417.5,194 374.9,120.3 295.8,166 295.8,74.6 
	210.6,74.6 210.6,166 131.5,120.3 88.9,194 168.1,239.7 88.9,285.4 131.5,359.1 210.6,313.4 210.6,404.8 295.8,404.8 295.8,313.4 
	374.9,359.1 "/>
<path fill="#FFFFFF" stroke="#000000" stroke-width="1.7021" d="M259.2,270c0,0,0.2,58.6,0.4,58.3l-12.3,8.7c0,0-0.2-49.7,0-57.3
	C250.4,276.8,259,269.7,259.2,270z"/>
<path fill="#FFFFFF" stroke="#000000" stroke-width="1.7021" d="M259.8,366.5l-0.1,22.3c-0.7,1-3.2,1.4-3.2,1.4s-3.7,0-5.5,0.3
	c-1.2-0.9-2.3-0.9-3.1-2c0.5-4.6-1.4-13,0.3-17C250.1,369.8,259.8,366.5,259.8,366.5z"/>
<path fill="#FFFFFF" stroke="#000000" stroke-width="1.7021" d="M292,333.4c0,29.1-43.9,37.9-43.9,37.9c-1.6,0.6-0.3,15.2-0.3,15.2
	l1.4,1.2l-0.1,12.1c0,0-23-6-23-30.8c0-19,33.5-40.7,33.5-40.7c0.3-12.3-0.1-32.1-0.1-32.1S292,301.2,292,333.4z"/>
<path fill="#FFFFFF" stroke="#000000" stroke-width="1.7021" d="M258.1,429.8c0,0,0,9.5-3.9,9.5c-3.9,0-3.9-8.7-3.9-8.7L258.1,429.8
	z"/>
<path fill="#FFFFFF" stroke="#000000" stroke-width="1.7021" d="M258.2,387.4l-0.1,22c-1,1.3-7.8,4.7-7.8,4.7s-2.1-17.7-1-26.4
	L258.2,387.4z"/>
<path fill="#FFFFFF" stroke="#000000" stroke-width="1.7021" d="M277.1,127.9c2.9-0.1,4.9,2.8,7.7,1.4c2.2,0.5,5.4,0.3,6,3.3
	c0.9,6.2-2.8,11.7-6.7,16.5c-7.7-1.2-19.2-0.4-21.1-1.5c-0.3,0.1,0.5,1.1,0.5,1.3c1.1,1.6,3.4,0.4,5.1,0.7c4.7,0.1,15.1,0.5,14.4,1
	c-5.3,1.7-14.9,2.3-20.1,2.2c-7.8-0.3-13.4-8.5-17.8-5.2c0,0-8,6.1-8,16.4c0,9.9,8.4,14.3,8.4,14.3l0.2,30.1
	c-12.7-2.1-27.1-12.2-34.2-23.7c-7.3-10.5-4.9-26,1-36.4c7.7-12.9,21.2-23.1,36.8-22.5c6.2,0.3,13-0.6,19.8,0
	C271.5,126.2,274.6,126.6,277.1,127.9z"/>
<path d="M273.1,129.1c2.3,1.5,5.6,0.7,7.8,2.6c2.3,0.2,5.9-0.6,7.9,1.4c1.1,9.1-6.7,12.3-6.7,12.3c-2.3-0.6,4.2-4.6,3.2-6.1
	c-0.3-0.8-1.3-0.8-1.8-0.4c-2.7,4.5-10.2,6.4-11.4,6.2c-2.1-0.4,7.7-5,5.7-8.3c-1-1.3-2.9-1.1-4.3-0.9c-3.5,2.1-2,9.4-7.7,7.4
	c-2.1-4.2-8.3-2.6-9-7.6v-8.2C262.6,129.3,267.6,127.1,273.1,129.1z"/>
<path d="M251.4,128.1c0.6,3.7-0.7,7.9-3.5,10.6c-2.6,2-4-2-6.4-2c-2.3-1.8-2.6-5-2.4-7.1C242.8,127.5,247.1,128.3,251.4,128.1z"/>
<path fill="#FFFFFF" d="M279.5,132.8c0.5,1.2-0.5,1.8-1.4,2.2c-2,0.9-3.9-1.3-3.7-2.8C274.8,130.3,278.4,131,279.5,132.8z"/>
<path d="M235.8,145.9c-5.7,0.5-9.6-2.7-12.4-7.6c3.1-2.4,6.3-4.9,9.8-6.4C237.7,135.2,235.5,141,235.8,145.9z"/>
<path d="M227.4,151.2l0.2,2.5c-2.6,0.7-4.9,2-7.7,1.8c-2.1-0.7-3.9-2.6-6-3.4c0.2-2.4,2-4.5,3.1-6.8l2.3-3.1
	C222.8,144.5,225.7,147.4,227.4,151.2z"/>
<path fill="#FFFFFF" stroke="#000000" stroke-width="1.7021" d="M257.1,151.3c0.5,10.1,1,77.1,1,77.1c-3.8,2.6-7.5,5.7-11.5,8
	c0,0-1.9-80-1.7-88.8C247.6,144.7,257.1,151.3,257.1,151.3z"/>
<path d="M217.4,160.2c3.4,0.9,6.5,2.6,9,5.4c-0.6,1.9-1.9,3.5-3.3,4.9c-2.7,4.8-8.3,3.6-12.4,5.5c-2.1-5.4-1.4-12.6,0.2-18
	C213,159,215.5,159.4,217.4,160.2z"/>
<path d="M232.1,179.6c0.3,3.7,0.1,8.8-3.9,10.8c-2.3,0.9-4.4,2.4-6.9,2.8c-3.2-3.1-6.1-6.6-7.7-10.4c3.5-1.4,6.6-3.7,10.6-4.1
	C227.1,178.2,229.6,179.7,232.1,179.6z"/>
<path fill="#FFFFFF" stroke="#000000" stroke-width="1.7021" d="M293,225.9c0,41.3-35.8,52.9-46.1,60.7l0.5,38.5
	c0,0-29.3-5-29.3-41.3c0-22.8,16.7-38,28.6-47.4c0.2-0.4,9.2-6.3,11.5-8l-0.5-48C257.5,180.4,293,185.5,293,225.9z"/>
<path d="M267.9,187.9c-1.4,2.8-2.4,6.6-6,7.6c-0.3-3.5-0.1-7.5-0.2-10.8C264,185.1,265.8,186.8,267.9,187.9z"/>
<path d="M272.8,191.4c3.2,2.4,5.7,5.6,8.2,8.8c-1.4,1.7-3.7,3.1-5.5,4.7h-6.6L268,199c1.4-2.6,2.6-5.1,4.1-7.6H272.8z"/>
<path d="M241.9,194.7c-0.3,3,0.2,6.8-2.6,8.2c-4.2-0.7-8.3-2.5-12.1-4.9c1.7-2.4,4.5-3.5,7-4.5C236.7,192.7,239.3,194.4,241.9,194.7
	z"/>
<path d="M287.1,210c0.9,2.2,1.5,4.5,1.8,7c-1.4,0.4-3,0.7-4.3,1.4c-1.8,0.3-3.5,1.6-5.1,0.8c-1.9,0-4.1-0.6-5.7-1.8l1.8-5.4
	c2.8-2.5,6-4,8.8-6.6C285.8,206.4,286.5,208.4,287.1,210z"/>
<path d="M288,223.4c1,5,0.5,10-0.8,14.6c-4.7-1.8-10.7-0.5-14.6-4.3c-0.5-1.2-1.6-2-1.4-3.5c1.7-1.8,3.8-2.2,5.4-4
	C279.9,223.7,283.9,224.3,288,223.4z"/>
<path d="M281.7,244.1c1.1,1.4,4.4,1.1,3.7,3.5c-1.5,3.3-3.7,6.4-6.9,8.6c-4.3-2.9-8.6-5.8-12.9-8.6c0-2.3-1.2-4.1-1-6.4
	c3.2,0.3,6-2.4,9.2-0.6C276.6,241.4,278.9,243.4,281.7,244.1z"/>
<path d="M261.3,250.4c4.1,4,8.3,6.8,12.1,10.9c-2.2,1.4-3.9,3-6,4.4c-1.3,0.9-3.1,2.5-4.7,3.3h-0.6c-3-3.3-5.5-7.1-8.6-10.6l0.2-9.4
	C255.8,249.4,258.8,249.8,261.3,250.4z"/>
<path d="M245.8,260.5l0.2-0.2c3.7,4.1,8,8.6,11.2,12.6c-0.9,2-3.3,3.2-5.1,4.5l-4.5,3.1c-3.4-3.1-5.9-7.2-8.5-11
	c-0.7-3.7-1.3-7.7-1-11.5C240.6,258.8,243.6,258.8,245.8,260.5z"/>
<path d="M235,273.6c2.3,3.5,6.2,6.4,8.9,9.8c-2,2.3-0.4,6-1,8.8c-4.4-0.2-8.4-2.6-12.3-4.9l-4.3-3.4c-0.8-3.5,0.5-7.1,0.4-10.9
	C229.5,273.1,232.3,273.3,235,273.6z"/>
<path d="M242.9,296.2V308c-4.1,0.4-7.7,1.3-11.7,0.6l-5.4-5.9c1.2-2.8,2.6-5.4,4.3-8C234.3,295.3,238.6,295.4,242.9,296.2z"/>
<path d="M264.8,302.2c-0.7,0.6-1.6,0.9-2.2,1.6c-0.3-1.8-0.3-3.1,0-4.9C263.2,299.9,265.3,300.7,264.8,302.2z"/>
<path d="M272.8,307.6c2.3,1.8,4.9,4.3,6.9,6.4c-4.3,3.6-9.8,6.3-15.5,7.6c-0.4,0-0.9-0.2-1.3,0.2l-0.2-13.3c2.3-1.3,3.5-7.7,6.7-3.9
	L272.8,307.6z"/>
<path d="M288.1,333.1c-3.7,2.8-7.2,6.1-11.9,6.6c-3,1.6-7,1.4-9.8-0.6c-1.4-1.7-2.6-3.5-3.2-5.5c2.3-2,4.9-3.7,7.1-5.5
	c2.6-1.2,5.6-1.5,7.9-3.7l1-0.2c1.4-1.3,3.4-2.3,4.3-3.9l0.8-0.6C286.3,323.9,288.4,328,288.1,333.1z"/>
<path d="M281.6,349.5c-2.6,3.6-6.6,5.8-10.2,8c-5-0.9-11,0.2-15.7-2.5c-2.4-1.5-1.4-5.3-1.6-8.2c4.1-0.8,8.4-2,12.3-0.4
	c7.8,1.8,15.7,0.3,21-5.9C286.3,343.9,284.5,347.7,281.6,349.5z"/>
<path d="M247.9,357.1v0.3c1.4-0.5,2.5,0.4,3.7,1.2c3.3,1.1,6.5,2.8,10,3.2c-4.5,2.5-9.7,4-14.1,7c-2.6-1.9-5.5-4.4-8.2-6.3
	c0.3-2.1-0.7-4.8,0.9-6.4C242.7,356.5,244.9,357,247.9,357.1z"/>
<path d="M243.5,372.8l0.4,12.3c-1.4,0.2-2.8,1.2-4.1,1.2c-0.7-0.9-1.4,0.2-2.2,0l-2-2.8l0.2,0.2l0.4-0.4c-1.6-0.5-3.7-2.9-4.3-4.8
	c1.9-2.7,4.9-4.3,7.3-7C240.7,371.9,241.9,373,243.5,372.8z"/>
<path fill="#FFFFFF" stroke="#000000" stroke-width="1.7021" d="M274.8,413.8c-1.3,3.7-9.9,17-21.4,17c-15.5,0-23.7-10.5-23.7-10.5
	s-0.5-1.9-0.9-3c-0.1-1.5-3.8-2-4-2.6c-0.6-0.6,1.5-2.6,0.6-3.5c-0.8-1.3-2.6,0.1-4.1-1.5c-0.9-0.9,0.2-2.9,0.1-3.5
	c-0.6-1.1-1.9-1-2.5-2.2c-0.8-1.8,1.8-2,1.4-3.7c-0.6-0.7-2.6-0.7-2.8-1.7c0-2.3,0.6-4.6,2.5-5.7c1.7-1.7,5.9,0.5,7.5,2
	c0.9,0.9-0.8,2.4,0.1,3.2c1.1,1.1,2.5,0.2,3,1.3c0.7,0.7,0.1,2.9,0.7,3.5c0.6,0.8,1.9,0.6,2.6,1.3c0.6,0.5-1.1,2.9-0.3,3.6
	c1,1.1,2.7-0.7,3.3,0.2c1.2,1.1,0.3,3.5,0.8,4.9c4.4,4.4,20.2-3.7,20.2-3.7l0.3-21.2c2.5-2.8,0.6-4,1.8-5.4
	C269.7,388.7,276.7,402.4,274.8,413.8z"/>
<path d="M266.7,391.8c1.6,1.4,2.6,2.8,3.1,4.9c-1.8,0.7-3.3,2-5.4,1.8c-0.9,0.8-1.6,0.3-2.6,0.9c0.3-3.6-2-9.1,2-11.1
	C264.5,389.7,266.4,390.2,266.7,391.8z"/>
<path d="M271.1,405.3c3.2,0.3,0.7,3.8,1.4,5.9c-0.4,2-0.5,4.4-2.5,5.7c-2.1-2.6-4.6-3.8-6.5-6.1c-1.3,0.5-2.4,0.1-3.7-0.3
	c2.1-1.7,1.3-5.4,4.3-6C266.6,403.9,268.8,405.6,271.1,405.3z"/>
<path d="M258.8,425.7c-3.1,1.6-6.6,2.7-10.4,2.2c0.3-3.7,2-7.7,0.2-11.2c1.2-0.7,3.1-1.9,4.5-0.6C256.8,418.1,258.1,422,258.8,425.7
	z"/>
<path d="M241.9,416.9c0.9,2.8-0.3,5.9-2.8,7c-2,0-4-1.4-5.5-2.5l-0.9-1c1.4-2,3.9-2.7,5.5-4.7L241.9,416.9z"/>
<g>
	<path fill="#FFFFFF" stroke="#000000" stroke-width="1.7021" d="M336.3,111.5c0.9-2.4-50.2-25.6-84.9-25.6
		c-35.3,0-58.2,15.9-59.7,17.7c1.8,4.8,4.1,9.4,8.2,13.3c0.9,0.6,1.5-0.9,2-1.3c6.1-5.1,19.8-15.6,29.5-17.3c0,0,0,4.4,0,4.4
		c7.8,0.4,13.7,17.6,11.9,23.4l14.7-0.3c-7.9-28,54.2-12.8,54.2-12.8l1.7-5.3l4.5,7.7l2.9-3.8l3.6,6.2l2.1-4.3l4.4,6.2L336.3,111.5
		L336.3,111.5z M251.4,107.2c-3.2,0-5.7-2.6-5.7-5.7c0-3.2,2.6-5.7,5.7-5.7c3.2,0,5.7,2.6,5.7,5.7
		C257.1,104.6,254.5,107.2,251.4,107.2z"/>
	
		<circle fill-rule="evenodd" clip-rule="evenodd" fill="none" stroke="#000000" stroke-width="1.7021" cx="251.4" cy="101.4" r="5.7"/>
</g>
<line fill="#FFFFFF" stroke="#000000" stroke-width="1.7021" x1="243.1" y1="119.7" x2="257.6" y2="119.7"/>
<path stroke="#000000" stroke-width="0.2816" d="M233.3,414.2c-0.5-0.9-1.4-1.3-2.1-2.2c-0.2-0.3-0.4-0.6-0.6-0.9
	c-0.8-1.1-1.4-2.2-2.1-3.4c-0.4-0.7-0.7-1.3-1.2-1.9c-0.5-0.7-0.9-1.2-1.3-1.9c-0.2-1.1-0.7-2.1-1.3-3.1c0-0.5-0.1-1-0.6-1.5
	c0.1,0.1,0.1,0.1,0.2,0.2c-0.3-0.5-0.5-1-1-1.3c0.1,0.1,0.1,0.1,0.2,0.2c-0.2-0.5-0.4-0.9-0.7-1.3c0,0,0,0,0.1,0
	c0-0.5-0.4-0.8-0.9-0.8c-0.5,0-0.8,0.4-0.8,0.9c0.1,0.9,0.7,1.7,1.1,2.5c0-0.1-0.1-0.1-0.1-0.2c0.3,0.4,0.5,0.9,0.8,1.3
	c0-0.1-0.1-0.2-0.1-0.3c0.1,0.9,0.5,1.7,1,2.6c0.3,0.6,0.3,1.3,0.6,1.9c0.4,0.7,0.8,1.2,1.2,1.9c0.7,1.1,1.3,2,1.8,3.1
	c0.4,0.8,0.8,1.6,1.4,2.2c0.5,1,1.3,1.8,2.3,2.6c0.1,0.1,0.3,0.2,0.4,0.4c0.2,0.4,0.7,0.6,1.2,0.3
	C233.3,415.1,233.5,414.6,233.3,414.2L233.3,414.2z"/>
<path stroke="#000000" stroke-width="0.2816" d="M227.5,400.5c-1.8,0.7-3.6,1.1-5.4,1.7c-0.5,0.1-0.8,0.5-0.7,1
	c0.1,0.5,0.5,0.8,1,0.7c0.2,0,0.4-0.1,0.6-0.2c-0.1,0-0.1,0-0.2,0c1.8-0.3,3.5-0.9,5.2-1.5c0.4-0.1,0.7-0.6,0.5-1.1
	C228.4,400.6,227.9,400.4,227.5,400.5L227.5,400.5z"/>
<path stroke="#000000" stroke-width="0.2816" d="M230.2,405.5c-0.9,0.4-1.8,0.6-2.7,1.1c-0.9,0.1-1.8,0.4-2.8,0.6
	c-0.2,0-0.4,0.2-0.6,0.3c0,0,0.1-0.1,0.1-0.1c-0.3,0.1-0.6,0.2-0.8,0.5c0.1-0.1,0.2-0.2,0.3-0.3c-0.4,0.2-0.7,0.6-0.5,1.1
	c0.2,0.4,0.6,0.7,1.1,0.5c0.2-0.1,0.3-0.2,0.5-0.3c-0.2,0.1-0.3,0.1-0.5,0.2c0.3,0,0.5-0.1,0.8-0.2c-0.1,0-0.1,0-0.2,0
	c0.9-0.1,1.8-0.3,2.8-0.6c1.1-0.3,2.1-0.8,3.1-1.2c0.4-0.2,0.7-0.6,0.5-1.1C231.1,405.5,230.6,405.3,230.2,405.5L230.2,405.5z"/>
<path stroke="#000000" stroke-width="0.2816" d="M231.7,410.3c-1,0.6-2.1,0.9-3.1,1.5c-0.3-0.1-0.5,0.1-0.8,0.2
	c-0.4,0.2-0.6,0.7-0.4,1.2c0.2,0.4,0.7,0.6,1.1,0.4c0,0,0.1,0,0.1-0.1c-0.1,0-0.2,0-0.3,0c1.4-0.2,2.7-1.1,4-1.7
	c0.4-0.2,0.6-0.7,0.4-1.1C232.6,410.2,232.1,410.1,231.7,410.3L231.7,410.3z"/>
<path stroke="#000000" stroke-width="0.2816" d="M224,396.4c-1.1,0-2.2,0.4-3.3,0.9c0.1,0,0.1-0.1,0.2-0.1c0,0-0.1,0-0.1,0
	c-0.5,0-0.8,0.4-0.8,0.9c0,0.5,0.4,0.8,0.9,0.8c0.8-0.1,1.5-0.5,2.2-0.7c0.3-0.1,0.7-0.1,1-0.1c0.5,0,0.8-0.4,0.8-0.9
	C224.9,396.8,224.5,396.4,224,396.4L224,396.4z"/>
<circle fill="none" stroke="#000000" stroke-width="2.5532" cx="253.1" cy="251.2" r="193.9"/>
<circle fill="none" stroke="#000000" stroke-width="3.4042" cx="253.1" cy="251.2" r="242.4"/>
<g>
	<path stroke="#000000" stroke-width="0" d="M211.1,445.9l0.2-0.1c2.3,0.8,4.6,1.5,7,2.2c1.8,0.5,3.6,0.8,5.4,1.2l0.1,0.2l-0.4,1.5
		l-0.2,0.1c-2-0.5-3.4-0.6-4.2,0c-1.1,0.8-5.5,16.8-6.5,20.5c-1.7,6.2-2.7,10.9-3.4,13.9l-0.4,0.2c-1.1-0.8-3.5-1.9-4.4-2.1
		c-2.8-5.3-11.1-24.2-16-36.1l-0.1,0l-3.7,13.7c-3.3,12.2-3.3,12.7-2.9,13.4c0.4,0.5,1.9,1.2,3.9,1.8l0.1,0.2l-0.4,1.5l-0.2,0.1
		c-2-0.7-4.1-1.4-6.1-2c-2-0.6-4.2-1-6.3-1.4l-0.1-0.2l0.4-1.5l0.2-0.1c2,0.5,3.6,0.7,4.2,0.4c0.7-0.4,1-0.8,4.3-13l1.4-5.3
		c3.3-12.2,3.3-12.7,2.9-13.4c-0.4-0.5-1.9-1.2-3.9-1.8l-0.1-0.2l0.4-1.5l0.2-0.1c1.9,0.6,3.8,1.3,5.8,1.9c1.6,0.4,2.8,0.6,4,0.8
		c1,3.7,13.1,30.9,15.7,36.7l0.1,0c0.5-1.7,1.8-7.3,3.7-14.5c3.3-12.2,3.3-12.7,2.9-13.4c-0.4-0.5-1.9-1.2-3.9-1.8l-0.1-0.2
		L211.1,445.9z"/>
	<path stroke="#000000" stroke-width="0" d="M245.5,449.4c11,0.5,19.5,6.8,18.9,19.7c-0.5,11.4-9.7,20.3-22.1,19.7
		c-14.9-0.7-18.9-11.7-18.5-20.9C224.4,455.7,233.8,448.9,245.5,449.4z M244.5,452c-7.7-0.4-13.7,5.2-14.1,14.2
		c-0.5,11.8,5.4,19.7,13.6,20c8.9,0.4,13.5-6.8,13.9-15.6C258.5,456.7,250.4,452.3,244.5,452z"/>
	<path stroke="#000000" stroke-width="0" d="M267.5,450.6l0.1-0.2c2.7-0.3,5.3-0.5,7.9-0.9c2.6-0.4,5.2-0.9,7.8-1.4l0.2,0.1l0.2,1.6
		l-0.1,0.2c-2,0.3-3.6,0.8-4,1.3c-0.5,0.6-0.6,1.1,1.2,13.6l0.5,3.7c0.7,5,1.5,10.1,2.3,15c2.9-0.4,14.3-2.1,15.1-3.2
		c0.4-0.6,0.6-2.7,0.7-5.9l0.1-0.2l1.7-0.2l0.2,0.1c0.1,2.5,0.4,6.2,0.6,9.6c-7.6,0.9-15.8,2-22.1,2.9c-1.3,0.2-2.7,0.5-4.6,0.9
		l-0.2-0.1l-0.2-1.1l0.1-0.2c1.7-1.1,2-1.5,2.1-1.8c0.1-0.5,0.2-1.1-2.3-18.8c-1.8-12.5-2-13-2.7-13.4c-0.5-0.4-2.2-0.4-4.3-0.1
		l-0.2-0.1L267.5,450.6z"/>
	<path stroke="#000000" stroke-width="0" d="M311.8,471.3l0.2,0.1c0.6,1.9,0.8,2.5,1.3,3.4c0.4,0.7,3.7,2.9,9.5,1.1
		c5.9-1.9,8.4-6,6.8-10.9c-3.3-10.4-20.8,5.3-25.3-8.9c-2.3-7.1,1.4-13.2,10.2-16c2.9-0.9,7.5-1.6,10.5-1l0.3,0.3
		c0.1,2,0.9,5.8,1.4,7.3l-0.1,0.2l-1.7,0.4l-0.2-0.1c-1-3.1-1.2-3.7-1.6-3.9c-1.1-0.7-4.2-1.5-8.1-0.3c-5.6,1.8-7.1,5.8-6,9.5
		c1.5,4.7,4.2,4.7,13.2,3.3c6.3-1,10.4,0.1,12.1,5.5c1.8,5.7-0.3,14.2-11.7,17.9c-3.8,1.2-8,1.3-10.3,0.9l-0.3-0.3
		c-0.4-2.5-1.1-5.3-1.8-7.6l0.1-0.2L311.8,471.3z"/>
</g>
<g>
	<path stroke="#000000" stroke-width="0" d="M42.2,351.9l-0.2-0.1c-0.8-1.7-1.7-3.4-2.6-5.1c-0.7-1.2-1.5-2.4-2.3-3.7l0.1-0.2
		l1.2-0.7l0.2,0.1c1.1,2,1.6,2.3,3.9,1.8c2.9-0.6,21.7-4.9,29.8-6.9l1.1,2l-17.6,21.8c9.5-0.8,24.4-1.9,28.3-2.6l1.1,2l-21.8,20.4
		c-1.9,1.8-2.2,2.2-0.9,4.5l-0.1,0.2l-1.2,0.7l-0.2-0.1c-0.9-2-1.9-3.9-3-5.8c-1-1.7-2-3.4-3.1-5.1l0.1-0.2l1.2-0.7l0.2,0.1
		c1.4,2.4,2.1,2.9,3.1,2.4c1.5-0.8,10.5-9,16.7-14.9l0-0.1c-9.2,0.7-26.3,2-27.6,2.2l-0.7-1.3c1.5-1.4,11.4-14,17-21l0-0.1
		c-15.8,3.8-20.6,5-21.8,5.6c-1.3,0.7-0.7,1.9,0.4,3.9l-0.1,0.2L42.2,351.9z"/>
	<path stroke="#000000" stroke-width="0" d="M35.5,335.5l-0.2-0.1c-0.7-2.3-1.3-4.5-2.1-6.6c-0.8-2.2-1.7-4.3-2.5-6.5l0.1-0.2
		l1.3-0.5l0.2,0.1c0.6,1.7,1.3,3,1.8,3.3c0.6,0.3,1.1,0.3,11.5-3.4l4.5-1.6c10.4-3.7,10.8-4,11.1-4.6c0.2-0.5,0-2-0.6-3.7l0.1-0.2
		l1.3-0.5l0.2,0.1c0.7,2.3,1.3,4.5,2.1,6.6c0.8,2.2,1.7,4.3,2.5,6.5l-0.1,0.2l-1.3,0.5l-0.2-0.1c-0.6-1.7-1.3-3-1.8-3.3
		c-0.6-0.3-1.1-0.3-11.5,3.4l-4.5,1.6c-10.4,3.7-10.8,4-11.1,4.6c-0.2,0.5,0,2,0.6,3.7l-0.1,0.2L35.5,335.5z"/>
	<path stroke="#000000" stroke-width="0" d="M28.4,315l-0.2-0.1c-0.4-2.3-0.8-4.6-1.3-6.8c-0.5-2.2-1.1-4.4-1.8-6.7l0.1-0.2l1.3-0.3
		l0.2,0.1c0.4,1.8,0.9,3.1,1.4,3.4c0.6,0.4,1,0.5,11.8-2l3.2-0.7c4.3-1,8.7-1.9,13-3c-0.6-2.5-2.8-12.4-3.8-12.9
		c-0.6-0.3-2.4-0.4-5.2-0.2l-0.2-0.1l-0.3-1.5l0.1-0.2c2.2-0.3,5.4-0.8,8.3-1.1c1.3,6.6,2.8,13.6,4,19.1c0.2,1.1,0.6,2.4,1.1,3.9
		l-0.1,0.2l-0.9,0.2l-0.2-0.1c-1.1-1.4-1.4-1.7-1.7-1.7c-0.5,0-1-0.1-16.2,3.3c-10.8,2.4-11.2,2.6-11.5,3.3
		c-0.3,0.5-0.2,1.9,0.2,3.7l-0.1,0.2L28.4,315z"/>
	<path stroke="#000000" stroke-width="0" d="M21,280l-0.1-0.1c0-2.4,0-4.7-0.1-7c-0.1-2.5-0.5-4.8-0.6-7.7
		c-0.6-12.2,3.4-19.6,14.5-20.1c8-0.4,18.1,4.7,18.7,18.2c0.2,3.7,0.1,6.2,0.2,9c0.1,1.1,0.2,2.4,0.4,4.1l-0.1,0.1l-0.9,0l-0.2-0.2
		c-0.8-1.5-1-1.9-1.3-1.9c-0.4-0.1-1-0.3-16.5,0.4c-11,0.5-11.5,0.7-11.9,1.2c-0.4,0.4-0.5,1.9-0.4,3.7l-0.1,0.1L21,280z
		 M22.4,264.6c0.1,2.6,0.3,3.9,0.6,5.3c3.1-0.1,7.1-0.1,13.7-0.5c7.7-0.4,11.2-0.6,14.3-0.9c0.3-1.4,0.3-2.6,0.2-4.4
		c-0.4-9.3-5.9-14.1-15.8-13.6C26.8,251,22,256.1,22.4,264.6z"/>
	<path stroke="#000000" stroke-width="0" d="M20,235.4l-0.1-0.2c0.4-2.4,0.8-4.6,1.1-6.9c1.1-8.7,1.7-14.8,2-17.9l0.3-0.3
		c2.4,0.5,4.9,1.1,7.2,1.5l0.1,0.2l-0.2,1.4l-0.2,0.1c-0.9-0.1-3.9-0.5-4.4-0.1c-0.5,0.4-1.3,4.4-1.8,7.9c-0.2,1.9-0.3,3.7-0.4,4.6
		c4.1,0.8,8.2,1.3,12.3,1.8c0.3-1.8,0.6-3.7,0.8-5.5c0.3-2.6,0.4-4.2-0.1-4.6c-0.7-0.5-2.4-0.9-3.2-1l-0.1-0.2l0.2-1.2l0.2-0.1
		c1.8,0.2,3.7,0.6,5.6,0.8c1.3,0.2,3.2,0.3,4.8,0.5l0.1,0.2l-0.2,1.2l-0.2,0.1c-0.7-0.1-2.6,0-3.5,0.2c-0.6,0.2-1.1,1.7-1.6,5.7
		c-0.2,1.6-0.3,2.8-0.4,4.2c4.4,0.6,8.8,1.1,13.2,1.6c0.3-2.5,1.5-12.2,1.1-13.4c-0.3-0.6-4-1.8-4.7-1.8l-0.1-0.2l0.2-1.5l0.2-0.1
		c2,0.4,5.1,1.1,7.6,1.5l0.2,0.4c-1,6.3-1.9,13.4-2.6,19c-0.1,1.1-0.3,2.4-0.3,4.1l-0.2,0.1l-0.9-0.1l-0.2-0.2c-0.5-1.6-0.7-2-1-2.1
		c-0.4-0.2-0.9-0.4-16.4-2.4c-11-1.4-11.4-1.3-12-0.8c-0.4,0.4-0.8,1.8-1.1,3.6l-0.2,0.1L20,235.4z"/>
	<path stroke="#000000" stroke-width="0" d="M43.3,191.8c0.2-0.5,0.4-0.9,0.5-1.3c1.4-4.8-1-8.3-4.7-9.4c-3.9-1.1-6.7,1.2-7.9,5.6
		c-0.4,1.3-0.6,2.9-0.6,4.1c1.7,0.6,4.5,1.5,15.5,4.8c10.6,3.1,11.1,3.1,11.7,2.7c0.5-0.3,1.1-1.6,1.6-3.2l0.2-0.1l1.3,0.4l0.1,0.2
		c-0.7,2.1-1.5,4.2-2.1,6.4c-0.6,2.2-1.2,4.4-1.7,6.7l-0.2,0.1l-1.3-0.4l-0.1-0.2c0.5-1.7,0.7-3.2,0.4-3.7c-0.3-0.6-0.7-0.9-11.3-4
		l-4.6-1.4c-10.6-3.1-11.1-3.1-11.7-2.7c-0.5,0.3-1.1,1.6-1.6,3.3l-0.2,0.1l-1.3-0.4l-0.1-0.2c0.8-2.3,1.5-4.4,2.2-6.6
		c0.8-2.7,1.4-5.6,2.1-8.1c1.9-6.6,4.5-10.7,10.1-9c5.3,1.6,6.8,6.4,6.6,10.5l15.3-5.1c1.9-0.6,2.3-1.1,2.7-2.5l0.2-0.1l1.3,0.4
		l0.1,0.2c-0.4,1-0.9,2.2-1.3,3.4c-0.4,1.2-0.6,2.5-0.8,3.7c-6.5,2-14,4.2-19.7,6.5L43.3,191.8z"/>
	<path stroke="#000000" stroke-width="0" d="M48.8,138.4l-0.1-0.2c1.1-1.9,2.1-3.7,3.1-5.6c0.7-1.4,1.3-3,2-4.4l0.2-0.1l1.2,0.6
		l0.1,0.2c-0.8,1.6-1.2,2.8-0.8,3.6c0.5,1,13.4,7.7,16.4,9.3c5,2.6,8.8,4.3,11.2,5.4l0.1,0.4c-0.9,0.8-2.2,2.7-2.6,3.4
		c-5.1,1.4-22.7,5.1-33.8,7.2l0,0.1l11.1,5.7c9.8,5,10.3,5.1,11,4.9c0.5-0.2,1.4-1.4,2.2-3l0.2-0.1l1.2,0.6l0.1,0.2
		c-0.9,1.6-1.9,3.2-2.8,4.9c-0.8,1.7-1.6,3.4-2.3,5.1l-0.2,0.1l-1.2-0.6l-0.1-0.2c0.8-1.6,1.3-3,1.1-3.5c-0.2-0.7-0.5-1-10.3-6
		l-4.3-2.2c-9.8-5-10.3-5.1-11-4.9c-0.5,0.2-1.4,1.4-2.2,3l-0.2,0.1l-1.2-0.6l-0.1-0.2c0.9-1.5,1.8-3,2.6-4.6c0.7-1.3,1-2.2,1.4-3.3
		c3.4-0.2,28.8-5.7,34.3-6.9l0-0.1c-1.4-0.7-5.9-2.8-11.8-5.8c-9.8-5-10.3-5.1-11-4.9c-0.5,0.2-1.4,1.4-2.2,3L50,139L48.8,138.4z"/>
	<path stroke="#000000" stroke-width="0" d="M59.3,120.5l0-0.2c1.5-1.8,3-3.6,4.4-5.4c5.4-7,8.9-11.9,10.7-14.4l0.4-0.1
		c1.8,1.7,3.7,3.4,5.5,4.9l0,0.2l-0.8,1.1l-0.2,0c-0.8-0.6-3.1-2.4-3.7-2.3c-0.6,0.1-3.3,3.1-5.5,6c-1.2,1.6-2.1,3-2.7,3.8
		c3.2,2.7,6.4,5.2,9.7,7.7c1.1-1.4,2.4-2.9,3.5-4.4c1.6-2.1,2.5-3.5,2.2-4c-0.3-0.8-1.6-2-2.2-2.5l0-0.2l0.8-1l0.2,0
		c1.5,1.1,2.9,2.4,4.5,3.5c1,0.8,2.6,1.9,3.9,2.9l0,0.2l-0.8,1l-0.2,0c-0.6-0.4-2.2-1.3-3.1-1.6c-0.6-0.2-1.8,0.9-4.2,4.1
		c-1,1.3-1.7,2.3-2.5,3.4c3.5,2.7,7.1,5.4,10.6,8c1.5-2,7.5-9.8,7.6-11c0.1-0.7-2.6-3.5-3.2-4l0-0.2l0.9-1.2l0.2,0
		c1.5,1.4,3.8,3.5,5.9,5.1l0,0.4c-4,4.9-8.4,10.6-11.8,15.1c-0.7,0.9-1.4,2-2.3,3.4l-0.2,0l-0.7-0.5l-0.1-0.3
		c0.4-1.7,0.4-2.1,0.2-2.3c-0.3-0.4-0.6-0.8-12.9-10.3c-8.8-6.7-9.2-6.9-9.9-6.7c-0.6,0.1-1.6,1.1-2.7,2.5l-0.2,0L59.3,120.5z"/>
	<path stroke="#000000" stroke-width="0" d="M101.1,107.8l0.2,0c1.2,1.3,1.6,1.7,2.3,2.2c0.6,0.4,4.1,0.8,7.9-2.9
		c3.9-3.8,4.2-8,1.1-11.2c-6.7-6.9-14.3,12.2-23.3,2.9c-4.5-4.7-4-10.9,1.8-16.5c1.9-1.9,5.3-4.2,7.8-4.9l0.3,0.1
		c0.8,1.5,3,4.2,3.9,5.2l0,0.2l-1.2,1l-0.2,0c-2-2.1-2.4-2.4-2.8-2.5c-1.1-0.1-3.9,0.4-6.5,3c-3.7,3.6-3.4,7.3-1,9.7
		c3,3.1,5.2,2,11.6-2.5c4.5-3.3,8.2-4,11.6-0.4c3.6,3.7,5.3,11.3-2.2,18.5c-2.5,2.5-5.7,4.2-7.8,4.7l-0.3-0.1
		c-1.3-1.8-2.9-3.8-4.4-5.3l0-0.2L101.1,107.8z"/>
	<path stroke="#000000" stroke-width="0" d="M123.5,87.2l0.2,0c1,1.4,1.4,1.9,2,2.5c0.5,0.5,3.9,1.4,8.2-1.7
		c4.4-3.2,5.3-7.3,2.7-10.9c-5.6-7.8-15.9,10-23.5-0.5c-3.8-5.3-2.4-11.4,4.1-16.1c2.2-1.6,5.8-3.4,8.5-3.7L126,57
		c0.6,1.6,2.3,4.6,3.1,5.7l0,0.2l-1.3,0.8l-0.2,0c-1.7-2.3-2-2.7-2.4-2.8c-1.1-0.2-3.9-0.1-6.8,2c-4.2,3-4.4,6.7-2.4,9.5
		c2.5,3.5,4.8,2.8,11.8-0.8c5-2.6,8.6-2.8,11.5,1.3c3,4.2,3.6,11.9-4.9,18c-2.9,2.1-6.3,3.3-8.4,3.6l-0.3-0.1
		c-1-1.9-2.3-4.1-3.6-5.8l0-0.2L123.5,87.2z"/>
	<path stroke="#000000" stroke-width="0" d="M148.7,41.3l0.1-0.2c2.3-0.8,3.4-1,5.3-1.8c1.4-0.5,2.9-1.3,3.6-1.7
		c7.6,7.5,17.6,16.4,20.9,19.4c1-9.5,1.8-18.9,2.6-28.5c1.2-0.4,2.9-0.9,4.2-1.4c1.3-0.5,3.1-1.3,4.3-1.9l0.2,0.1l0.5,1.3l-0.1,0.2
		c-1.7,0.7-2.9,1.4-3.2,1.9c-0.3,0.6-0.3,1.1,3.7,11.4l1.7,4.5c4,10.3,4.3,10.7,4.9,10.9c0.5,0.2,2-0.1,3.6-0.7l0.2,0.1l0.5,1.3
		l-0.1,0.2c-2.3,0.8-4.4,1.5-6.6,2.3c-2.1,0.8-4.2,1.8-6.4,2.7l-0.2-0.1l-0.5-1.3l0.1-0.2c1.7-0.7,2.9-1.4,3.2-1.9
		c0.3-0.6,0.3-1.1-3.7-11.4l-4.2-10.9l-0.1,0c-1.1,9.9-2.8,26.1-2.7,29.5l-0.9,0.4c-2.6-3.1-17.8-16.4-21.8-20.1l-0.1,0l4.2,10.9
		c4,10.3,4.3,10.7,4.9,10.9c0.5,0.2,2-0.1,3.5-0.7l0.2,0.1l0.5,1.3l-0.1,0.2c-1.7,0.5-3.4,1.1-5.1,1.7c-1.8,0.7-3.5,1.5-5.3,2.3
		l-0.2-0.1l-0.5-1.3l0.1-0.2c1.7-0.7,2.9-1.4,3.2-1.9c0.3-0.6,0.3-1.1-3.7-11.4l-1.7-4.5c-4-10.3-4.3-10.7-4.9-10.9
		c-0.5-0.2-2,0.1-3.6,0.7l-0.2-0.1L148.7,41.3z"/>
	<path stroke="#000000" stroke-width="0" d="M199.9,23.5l0.1-0.2c2.4-0.3,4.6-0.6,6.9-0.9c8.7-1.5,14.6-2.7,17.7-3.3l0.3,0.2
		c0.2,2.5,0.4,5,0.7,7.3l-0.1,0.2l-1.4,0.2l-0.2-0.1c-0.2-0.9-0.7-3.9-1.2-4.2c-0.5-0.3-4.5,0-8.1,0.6c-1.9,0.3-3.6,0.8-4.5,1
		c0.5,4.2,1.2,8.2,1.9,12.3c1.8-0.3,3.7-0.5,5.5-0.9c2.6-0.4,4.2-0.9,4.3-1.4c0.3-0.8,0.2-2.6,0.1-3.3l0.1-0.2l1.2-0.2l0.2,0.1
		c0.3,1.8,0.5,3.7,0.9,5.6c0.2,1.3,0.6,3.1,0.9,4.8l-0.1,0.2l-1.2,0.2l-0.2-0.1c-0.1-0.7-0.8-2.5-1.2-3.3c-0.3-0.6-1.9-0.5-5.9,0.2
		c-1.6,0.3-2.8,0.5-4.1,0.8c0.8,4.4,1.5,8.8,2.4,13.1c2.5-0.4,12.2-2.1,13.1-2.9c0.5-0.4,0.5-4.3,0.4-5l0.1-0.2l1.5-0.3l0.2,0.1
		c0.2,2,0.5,5.1,0.8,7.7l-0.3,0.3c-6.3,0.9-13.4,2.1-18.9,3c-1.1,0.2-2.4,0.5-4,0.9l-0.2-0.1l-0.2-0.9l0.1-0.3
		c1.4-1,1.7-1.3,1.8-1.6c0.1-0.4,0.2-1-2.5-16.4c-1.9-10.9-2.1-11.3-2.7-11.7c-0.5-0.3-1.9-0.3-3.7,0l-0.2-0.1L199.9,23.5z"/>
	<path stroke="#000000" stroke-width="0" d="M236.3,17.7l0.1-0.1c2.4,0.1,4.7,0.3,7,0.3c2.5,0,4.9-0.2,7.7-0.2
		c12.2,0,19.4,4.4,19.4,15.5c0,8-5.6,17.8-19.1,17.8c-3.7,0-6.2-0.3-9-0.3c-1.1,0-2.4,0-4.1,0.2l-0.1-0.1l0-0.9l0.2-0.2
		c1.6-0.7,1.9-0.9,2-1.2c0.1-0.4,0.3-1,0.4-16.5c0-11.1-0.1-11.5-0.6-12c-0.4-0.4-1.9-0.6-3.7-0.6l-0.1-0.1L236.3,17.7z M251.5,19.9
		c-2.6,0-3.9,0.1-5.3,0.4c-0.1,3.1-0.2,7.1-0.2,13.7c0,7.7,0.1,11.2,0.1,14.3c1.4,0.3,2.6,0.4,4.4,0.4c9.3,0,14.4-5.2,14.4-15.1
		C264.9,25,260.1,19.9,251.5,19.9z"/>
	<path stroke="#000000" stroke-width="0" d="M279.7,19.2l0.2-0.1c2.3,0.4,4.6,0.9,6.9,1.2c2.3,0.3,4.5,0.5,6.9,0.8l0.1,0.2l-0.2,1.4
		l-0.2,0.1c-1.8-0.3-3.2-0.2-3.7,0.1c-0.6,0.4-0.8,0.8-2.4,11.7l-0.7,4.8c-1.6,10.9-1.5,11.4-1,11.9c0.4,0.4,1.8,0.9,3.5,1.1
		l0.1,0.2l-0.2,1.4l-0.2,0.1c-2.3-0.4-4.6-0.9-6.9-1.2c-2.3-0.3-4.5-0.5-6.9-0.8l-0.1-0.2l0.2-1.4l0.2-0.1c1.8,0.3,3.2,0.2,3.7-0.1
		c0.6-0.4,0.8-0.8,2.4-11.7l0.7-4.8c1.6-10.9,1.5-11.4,1-11.9c-0.4-0.4-1.8-0.9-3.5-1.1l-0.1-0.2L279.7,19.2z"/>
	<path stroke="#000000" stroke-width="0" d="M323.9,58.4c-0.6,0.8-1.2,1.5-1.8,2.3c-3.4,0.6-7.1,0.5-11.2-0.7
		c-9-2.6-16.1-10.5-13-21.4c2.9-10.3,11.7-14.9,23.2-11.7c3.8,1.1,8.4,3.5,10.1,4.7l0.2,0.4c-1.2,1.7-2.4,5.1-2.7,6.2l-0.2,0.1
		l-1.5-0.4l-0.1-0.2c0.3-1.1,0.5-2.3,0.7-3.5c-0.7-1.6-3.7-4.1-7.8-5.3c-8.6-2.4-14.3,3.3-16.1,9.6c-2.4,8.3,0.5,16.5,10.3,19.4
		c2.7,0.8,6.3,1,9.4,0L323.9,58.4z"/>
	<path stroke="#000000" stroke-width="0" d="M340.5,34.5l0.2-0.1c2.1,1,4.2,2.1,6.3,3c2.1,0.9,4.2,1.7,6.5,2.6l0.1,0.2l-0.6,1.3
		l-0.2,0.1c-1.7-0.7-3.1-1.1-3.6-0.9c-0.7,0.2-1,0.6-5.4,10.7l-1.9,4.4c-4.4,10.1-4.5,10.6-4.2,11.2c0.2,0.5,1.5,1.3,3.1,2l0.1,0.2
		l-0.6,1.3l-0.2,0.1c-2.1-1-4.2-2.1-6.3-3c-2.1-0.9-4.2-1.7-6.5-2.6l-0.1-0.2l0.6-1.3l0.2-0.1c1.7,0.7,3.1,1.1,3.6,0.9
		c0.7-0.2,1-0.6,5.4-10.7l1.9-4.4c4.4-10.1,4.5-10.6,4.2-11.2c-0.2-0.5-1.5-1.3-3.1-2l-0.1-0.2L340.5,34.5z"/>
	<path stroke="#000000" stroke-width="0" d="M383.3,57.2l0.2,0c1.8,1.2,3.5,2.5,5.3,3.6c1.4,0.9,2.8,1.6,4.2,2.4l0,0.2l-0.7,1.2
		l-0.2,0c-1.5-1-2.7-1.4-3.5-1.1c-1.1,0.4-8.9,12.7-10.6,15.5c-3,4.8-5.1,8.4-6.4,10.7l-0.4,0.1c-0.8-0.9-2.5-2.4-3.2-2.9
		c-1-5.2-3.1-23.1-4.3-34.3l-0.1-0.1L357,63c-5.9,9.4-6,9.8-5.8,10.5c0.2,0.6,1.2,1.5,2.8,2.5l0,0.2l-0.7,1.2l-0.2,0
		c-1.5-1.1-3.1-2.2-4.6-3.2c-1.6-1-3.3-1.9-4.9-2.8l0-0.2l0.7-1.2l0.2,0c1.5,1,2.9,1.5,3.4,1.4c0.7-0.1,1-0.4,6.9-9.8l2.6-4.1
		c5.9-9.4,6-9.8,5.8-10.5c-0.2-0.6-1.2-1.5-2.8-2.5l0-0.2l0.7-1.2l0.2,0c1.4,1,2.8,2,4.4,3c1.3,0.8,2.2,1.2,3.2,1.7
		c-0.1,3.4,3.1,29.2,3.9,34.7l0.1,0.1c0.8-1.3,3.3-5.7,6.8-11.2c5.9-9.4,6-9.8,5.8-10.5c-0.2-0.6-1.2-1.5-2.8-2.5l0-0.2L383.3,57.2z
		"/>
	<path stroke="#000000" stroke-width="0" d="M400.1,69.2l0.2,0c1.7,1.7,3.3,3.3,5,4.9c6.5,5.9,11.1,9.9,13.4,11.9l0.1,0.4
		c-1.8,1.7-3.7,3.4-5.4,5l-0.2,0l-1-0.9l0-0.2c0.6-0.7,2.7-2.9,2.6-3.5c-0.1-0.6-2.8-3.6-5.5-6c-1.4-1.3-2.8-2.4-3.5-3
		c-3,2.9-5.8,6-8.5,9c1.3,1.3,2.7,2.6,4.1,3.8c1.9,1.8,3.2,2.8,3.8,2.6c0.8-0.3,2.2-1.5,2.7-2l0.2,0l0.9,0.8l0,0.2
		c-1.3,1.4-2.6,2.7-3.9,4.1c-0.9,1-2.1,2.4-3.2,3.7l-0.2,0l-0.9-0.8l0-0.2c0.5-0.5,1.5-2.1,1.8-3c0.2-0.6-0.8-1.9-3.8-4.6
		c-1.2-1.1-2.1-1.9-3.2-2.8c-3,3.3-6,6.6-8.9,9.9c1.9,1.7,9.1,8.3,10.3,8.6c0.6,0.1,3.7-2.3,4.2-2.8l0.2,0l1.1,1l0,0.2
		c-1.5,1.4-3.8,3.5-5.6,5.4l-0.4-0.1c-4.6-4.4-9.8-9.3-14-13.1c-0.8-0.8-1.8-1.6-3.2-2.6l0-0.2l0.6-0.7l0.3,0
		c1.6,0.5,2.1,0.6,2.3,0.4c0.4-0.2,0.9-0.5,11.4-12c7.4-8.2,7.6-8.6,7.6-9.3c-0.1-0.6-1-1.7-2.3-2.9l0-0.2L400.1,69.2z"/>
	<path stroke="#000000" stroke-width="0" d="M435.1,104.7l0.2,0c1.4,2,2.6,3.9,4,5.7c1.4,1.8,2.9,3.6,4.4,5.4l0,0.2l-1.1,0.8l-0.2,0
		c-1.1-1.4-2.1-2.4-2.7-2.6c-0.7-0.1-1.1,0-9.9,6.7l-3.8,2.9c-8.8,6.7-9.1,7-9.1,7.7c0,0.6,0.6,1.9,1.7,3.3l0,0.2l-1.1,0.8l-0.2,0
		c-1.4-2-2.6-3.9-4-5.7c-1.4-1.8-2.9-3.6-4.4-5.4l0-0.2l1.1-0.8l0.2,0c1.1,1.4,2.1,2.4,2.7,2.6c0.7,0.1,1.1,0,9.9-6.7l3.8-2.9
		c8.8-6.7,9.1-7,9.1-7.7c0-0.6-0.6-1.9-1.7-3.3l0-0.2L435.1,104.7z"/>
	<path stroke="#000000" stroke-width="0" d="M461.4,145.3l0.2,0.1c0.9,1.9,1.8,3.8,2.9,5.7c0.8,1.4,1.7,2.8,2.5,4.1l-0.1,0.2
		l-1.2,0.7l-0.2-0.1c-0.9-1.6-1.7-2.5-2.6-2.7c-1.1-0.2-13.9,6.8-16.9,8.4c-4.9,2.7-8.5,4.9-10.8,6.3l-0.3-0.1
		c-0.2-1.2-1-3.3-1.4-4.1c1.7-5,8.5-21.7,13-32l0-0.1l-10.9,6c-9.7,5.3-10,5.7-10.2,6.3c-0.1,0.6,0.4,1.9,1.2,3.5l-0.1,0.2l-1.2,0.7
		l-0.2-0.1c-0.8-1.7-1.6-3.4-2.5-5c-0.9-1.6-1.9-3.2-2.9-4.8l0.1-0.2l1.2-0.7l0.2,0.1c0.9,1.6,1.8,2.7,2.3,2.9
		c0.7,0.2,1.1,0.1,10.8-5.2l4.2-2.3c9.7-5.3,10-5.7,10.2-6.3c0.1-0.6-0.4-1.9-1.2-3.5l0.1-0.2l1.2-0.7l0.2,0.1
		c0.8,1.6,1.5,3.2,2.3,4.8c0.7,1.3,1.3,2.1,1.9,3c-1.7,2.9-11.5,27-13.5,32.2l0,0.1c1.3-0.7,5.7-3.3,11.4-6.5
		c9.7-5.3,10-5.7,10.2-6.3c0.1-0.6-0.4-1.9-1.2-3.5l0.1-0.2L461.4,145.3z"/>
	<path stroke="#000000" stroke-width="0" d="M447.9,174.9l-0.1,0.2c-1.7,0.6-2.2,0.8-3,1.2c-0.6,0.3-2.5,3.3-0.8,8.4
		c1.8,5.1,5.4,7.2,9.7,5.8c9.1-3.1-4.9-18.1,7.4-22.3c6.2-2.1,11.6,1,14.2,8.6c0.9,2.5,1.5,6.5,1,9.2l-0.3,0.2
		c-1.7,0.1-5.1,0.9-6.4,1.3l-0.2-0.1l-0.4-1.5l0.1-0.2c2.7-0.9,3.2-1.1,3.4-1.5c0.6-1,1.3-3.7,0.1-7.1c-1.7-4.9-5.2-6.1-8.4-5.1
		c-4.1,1.4-4,3.8-2.7,11.6c1,5.5,0.1,9.1-4.6,10.7c-4.9,1.7-12.4,0-15.8-9.9c-1.1-3.3-1.3-7-1-9l0.2-0.2c2.1-0.4,4.6-1,6.6-1.7
		l0.2,0.1L447.9,174.9z"/>
	<path stroke="#000000" stroke-width="0" d="M450.6,208.6l0.2,0.1c0.3,1.8,0.8,3.1,1.3,3.5c0.6,0.4,1,0.5,11.9-1.4
		c3.4-0.6,8.5-1.7,16-3.2c-0.3-1.9-0.5-3.3-0.8-4.8c-0.4-2.4-0.7-3.3-1.2-3.6c-0.4-0.3-0.8-0.2-4.4,0.1l-0.2-0.2l-0.3-1.5l0.1-0.2
		c3.4-0.6,5.6-1,7.3-1.6l0.2,0.1c0.6,4.4,1.5,9.8,2.3,14c0.7,4.2,1.8,9.6,2.7,13.9l-0.1,0.2c-1.8,0-4,0.4-7.4,1l-0.2-0.1l-0.3-1.5
		l0.2-0.2c3.5-1,3.9-1.1,4.2-1.5c0.4-0.4,0.3-1.3-0.1-3.8c-0.3-1.5-0.5-2.9-0.9-4.8c-7.6,1.3-12.8,2-16.1,2.6
		c-10.9,1.9-11.3,2.2-11.7,2.8c-0.3,0.5-0.3,1.9,0,3.7l-0.1,0.2l-1.4,0.2l-0.2-0.1c-0.3-2.4-0.6-4.6-1-6.9c-0.4-2.3-0.9-4.5-1.5-6.8
		l0.1-0.2L450.6,208.6z"/>
	<path stroke="#000000" stroke-width="0" d="M485.9,231.1l0.1,0.1c0,2.4,0,4.7,0.1,7c0.1,2.3,0.4,4.6,0.6,6.9l-0.1,0.2l-1.4,0.1
		l-0.2-0.1c-0.1-1.8-0.4-3.2-0.8-3.6c-0.5-0.5-0.9-0.6-12,0l-4.8,0.3c-11,0.6-11.5,0.8-11.9,1.3c-0.4,0.4-0.5,1.9-0.4,3.7L455,247
		l-1.4,0.1l-0.2-0.1c0-2.4,0-4.7-0.1-7c-0.1-2.3-0.4-4.6-0.6-6.9l0.1-0.1l1.4-0.1l0.1,0.1c0.1,1.8,0.4,3.2,0.8,3.6
		c0.5,0.5,0.9,0.6,12,0l4.8-0.3c11-0.6,11.5-0.8,11.9-1.3c0.4-0.4,0.5-1.9,0.4-3.7l0.1-0.2L485.9,231.1z"/>
	<path stroke="#000000" stroke-width="0" d="M455,257.3l0.1,0.2c-0.1,1.8,0,3.3,0.4,3.7c0.4,0.6,0.9,0.7,11.9,1.4
		c3.4,0.2,8.7,0.4,16.3,0.7c0.2-1.9,0.3-3.4,0.4-4.9c0.2-2.5,0.1-3.4-0.3-3.7c-0.4-0.4-0.7-0.4-4.3-1l-0.2-0.2l0.1-1.5l0.2-0.1
		c3.5,0.2,5.7,0.4,7.5,0.2l0.1,0.2c-0.4,4.5-0.9,9.9-1.1,14.2c-0.3,4.2-0.5,9.7-0.7,14.2l-0.2,0.1c-1.7-0.4-4-0.5-7.4-0.8l-0.1-0.2
		l0.1-1.5l0.2-0.2c3.6-0.1,4-0.1,4.4-0.4c0.4-0.3,0.6-1.2,0.8-3.7c0.1-1.5,0.2-3,0.3-4.9c-7.7-0.6-12.9-1.1-16.3-1.3
		c-11-0.7-11.5-0.6-12-0.1c-0.4,0.4-0.7,1.8-0.8,3.6l-0.2,0.1l-1.4-0.1l-0.1-0.2c0.2-2.4,0.5-4.6,0.7-6.9c0.1-2.3,0.1-4.6,0.2-7
		l0.2-0.1L455,257.3z"/>
	<path stroke="#000000" stroke-width="0" d="M478.4,313l0.1,0.2c-0.4,1.2-1,2.9-1.5,5.1c-0.5,2.2-0.9,4.2-1.1,5.6l-0.2,0.1l-1.3-0.3
		l-0.1-0.2c0.4-1.8,0.5-3.2,0.3-3.7c-0.3-0.6-0.7-0.9-11.5-3.5l-6.3-1.5c-8.7-2.1-11.8-7.4-9.6-16.7c1.8-7.2,5.7-12.1,13.9-10.1
		l8.3,2c10.7,2.6,11.2,2.6,11.8,2.2c0.5-0.3,1-1.7,1.5-3.4l0.2-0.1l1.3,0.3l0.1,0.2c-0.7,2.3-1.3,4.5-1.9,6.7
		c-0.5,2.2-0.9,4.5-1.4,6.8l-0.2,0.1l-1.3-0.3l-0.1-0.2c0.4-1.8,0.5-3.2,0.3-3.7c-0.3-0.6-0.7-0.9-11.5-3.5l-7.6-1.8
		c-3.9-0.9-8.7-0.1-10.4,7.2c-1.7,6.9,0.7,10.4,6.9,11.9l6.5,1.6c10.7,2.6,11.2,2.6,11.8,2.2c0.5-0.3,1-1.7,1.5-3.4l0.2-0.1
		L478.4,313z"/>
	<path stroke="#000000" stroke-width="0" d="M440.8,325.8l0.1,0.2c-0.7,1.7-1.1,3.1-0.9,3.6c0.2,0.7,0.6,1,10.7,5.4
		c3.1,1.4,8,3.3,15.1,6.3c0.8-1.8,1.4-3.1,2-4.5c1-2.3,1.3-3.1,1-3.6c-0.2-0.5-0.5-0.7-3.7-2.4l-0.1-0.3l0.6-1.4l0.2-0.1
		c3.2,1.4,5.2,2.3,7,2.8l0.1,0.2c-1.9,4-4.2,9-5.9,12.9c-1.7,3.9-3.8,8.9-5.5,13.1l-0.2,0.1c-1.5-1-3.5-1.9-6.7-3.3l-0.1-0.2
		l0.6-1.4l0.3-0.1c3.4,1.2,3.8,1.3,4.3,1.1c0.5-0.1,1-0.9,2-3.2c0.6-1.4,1.2-2.7,1.9-4.5c-7-3.2-11.7-5.5-14.8-6.8
		c-10.1-4.5-10.6-4.5-11.2-4.2c-0.5,0.2-1.3,1.5-2,3.1l-0.2,0.1l-1.3-0.6l-0.1-0.2c1-2.1,2.1-4.2,3-6.3c0.9-2.1,1.7-4.2,2.6-6.5
		l0.2-0.1L440.8,325.8z"/>
	<path stroke="#000000" stroke-width="0" d="M457.3,365.3l0,0.2c-1.4,2-2.7,3.8-4,5.7c-4.8,7.4-7.9,12.6-9.5,15.3l-0.4,0.1
		c-2-1.5-4-3.1-5.9-4.4l0-0.2l0.7-1.2l0.2,0c0.8,0.5,3.3,2.1,3.9,2c0.6-0.2,3.1-3.4,5-6.4c1.1-1.6,1.9-3.2,2.3-4
		c-3.4-2.5-6.9-4.7-10.3-6.9c-1,1.5-2.1,3.1-3.1,4.6c-1.4,2.2-2.2,3.6-1.9,4.2c0.4,0.8,1.8,1.9,2.4,2.3l0,0.2l-0.7,1l-0.2,0
		c-1.6-1-3.1-2.1-4.7-3.1c-1.1-0.7-2.7-1.6-4.1-2.5l0-0.2l0.7-1l0.2,0c0.6,0.4,2.3,1.1,3.2,1.3c0.6,0.1,1.7-1.1,3.9-4.5
		c0.9-1.4,1.5-2.4,2.2-3.6c-3.7-2.4-7.5-4.8-11.2-7.1c-1.4,2.1-6.7,10.4-6.7,11.6c0,0.7,2.9,3.3,3.5,3.7l0,0.2l-0.8,1.3l-0.2,0
		c-1.6-1.2-4.1-3.1-6.3-4.6l0-0.5c3.6-5.2,7.5-11.3,10.5-16c0.6-1,1.3-2.1,2-3.6l0.2,0l0.8,0.5l0.1,0.3c-0.2,1.7-0.2,2.1,0,2.4
		c0.3,0.4,0.6,0.8,13.7,9.2c9.3,6,9.7,6.1,10.4,5.9c0.6-0.2,1.5-1.2,2.5-2.8l0.2,0L457.3,365.3z"/>
</g>
</svg>
