<?xml version="1.0" encoding="utf-8"?>
<!-- Generator: Adobe Illustrator 18.1.0, SVG Export Plug-In . SVG Version: 6.00 Build 0)  -->
<!DOCTYPE svg PUBLIC "-//W3C//DTD SVG 1.1//EN" "http://www.w3.org/Graphics/SVG/1.1/DTD/svg11.dtd">
<svg version="1.1" id="Layer_1" xmlns="http://www.w3.org/2000/svg" xmlns:xlink="http://www.w3.org/1999/xlink" x="0px" y="0px"
	 viewBox="296 206 200 200" enable-background="new 296 206 200 200" xml:space="preserve">
<g opacity="0.95">
	
		<image overflow="visible" opacity="0.45" enable-background="new    " width="336" height="335" xlink:href="E88E1EEEC3145B9D.png"  transform="matrix(0.5971 0 0 0.5971 295 205.6936)">
	</image>
	<g>
		<g>
			<path fill="none" stroke="#FFFFFF" stroke-width="2" d="M404,259c1.1-0.1,1.9,1.1,2.9,0.5c0.8,0.2,2,0.1,2.2,1.3
				c0.3,2.3-1.1,4.4-2.5,6.2c-2.9-0.5-7.2-0.2-7.9-0.5c-0.1,0.1,0.2,0.4,0.2,0.5c0.4,0.6,1.3,0.2,1.9,0.2c1.7,0.1,5.6,0.2,5.4,0.4
				c-2,0.7-5.6,0.9-7.5,0.8c-2.9-0.1-5-3.2-6.6-1.9c0,0-3,2.3-3,6.1c0,3.7,3.1,5.3,3.1,5.3l0.1,11.3c-4.7-0.8-10.1-4.6-12.8-8.9
				c-2.8-3.9-1.8-9.7,0.4-13.6c2.9-4.9,7.9-8.6,13.7-8.4c2.3,0.1,4.9-0.2,7.4,0C401.9,258.4,403.1,258.5,404,259L404,259z"/>
			<path fill="none" stroke="#FFFFFF" stroke-width="2" stroke-linejoin="round" d="M403.2,365.8c-0.5,1.4-3.7,6.3-8,6.3
				c-5.8,0-8.9-3.9-8.9-3.9s-0.2-0.7-0.3-1.1c-0.1-0.6-1.4-0.7-1.5-1c-0.2-0.2,0.5-1,0.2-1.3c-0.3-0.5-1,0.1-1.6-0.5
				c-0.4-0.4,0.1-1.1,0-1.3c-0.2-0.4-0.7-0.4-0.9-0.8c-0.3-0.7,0.7-0.7,0.5-1.4c-0.2-0.2-1-0.2-1.1-0.7c0-0.8,0.2-1.7,0.9-2.2
				c0.7-0.7,2.2,0.2,2.8,0.7c0.4,0.3-0.3,0.9,0.1,1.2c0.4,0.4,1,0.1,1.1,0.5c0.3,0.3,0,1.1,0.2,1.3c0.2,0.3,0.7,0.2,1,0.5
				c0.2,0.2-0.4,1.1-0.1,1.3c0.4,0.4,1-0.2,1.3,0.1c0.4,0.4,0.1,1.3,0.3,1.8c1.7,1.7,7.7-1.4,7.7-1.4l0.1-7.3c0.2,0,0.5-0.2,0.5-0.3
				c0.1-0.1,0.1-1.6,0-2.4C401.1,356.2,403.8,361.6,403.2,365.8L403.2,365.8z"/>
			<path fill="#FFFFFF" d="M394.4,259.1c0.2,1.4-0.2,2.9-1.3,4c-1,0.8-1.5-0.8-2.4-0.8c-0.8-0.7-1-1.9-0.9-2.7
				C391.2,258.9,392.8,259.2,394.4,259.1L394.4,259.1z"/>
			<path fill="#FFFFFF" d="M404.4,261.7c-0.8,0.4-1.4-0.5-1.4-1.1c0.1-0.7,1.5-0.4,1.9,0.2C405.1,261.3,404.7,261.5,404.4,261.7
				L404.4,261.7z M408.4,261c-0.8-0.8-2.1-0.5-2.9-0.5c-0.8-0.7-2.1-0.4-2.9-1c-2.1-0.8-4,0.1-6.1-0.5v3.1c0.3,1.9,2.6,1.3,3.4,2.8
				c2.2,0.7,1.6-2,2.9-2.8c0.5-0.1,1.3-0.2,1.6,0.3c0.7,1.2-2.9,2.9-2.2,3.1c0.4,0.1,3.2-0.7,4.3-2.3c0.2-0.1,0.5-0.1,0.7,0.2
				c0.4,0.6-2.1,2.1-1.2,2.3C405.9,265.6,408.8,264.4,408.4,261L408.4,261z"/>
			<path fill="#FFFFFF" d="M388.6,265.7c-2.2,0.2-3.6-1-4.7-2.8c1.2-0.9,2.3-1.8,3.7-2.4C389.3,261.7,388.4,263.9,388.6,265.7
				L388.6,265.7z"/>
			<path fill="#FFFFFF" d="M385.4,267.7l0.1,0.9c-1,0.2-1.8,0.7-2.9,0.7c-0.8-0.2-1.4-1-2.2-1.3c0.1-0.9,0.8-1.7,1.1-2.5l0.8-1.1
				C383.7,265.2,384.8,266.3,385.4,267.7L385.4,267.7z"/>
			<path fill="#FFFFFF" d="M381.7,271.1c1.3,0.4,2.4,1,3.4,2c-0.2,0.7-0.7,1.3-1.3,1.9c-1,1.8-3.1,1.3-4.7,2.1
				c-0.8-2-0.5-4.7,0.1-6.7C380.1,270.7,381,270.8,381.7,271.1L381.7,271.1z"/>
			<path fill="#FFFFFF" d="M387.2,278.3c0.1,1.4,0.1,3.3-1.4,4c-0.8,0.3-1.7,0.9-2.6,1.1c-1.2-1.1-2.3-2.5-2.9-3.9
				c1.3-0.5,2.5-1.4,4-1.5C385.3,277.8,386.2,278.4,387.2,278.3L387.2,278.3z"/>
			<path fill="#FFFFFF" d="M400.5,281.4c-0.5,1.1-0.9,2.5-2.2,2.8c-0.1-1.3-0.1-2.8-0.1-4C399.1,280.4,399.8,281,400.5,281.4
				L400.5,281.4z"/>
			<path fill="#FFFFFF" d="M402.4,282.8c1.2,0.9,2.2,2.1,3.1,3.3c-0.5,0.7-1.4,1.2-2.1,1.7h-2.5l-0.3-2.2c0.5-1,1-1.9,1.5-2.8H402.4
				L402.4,282.8z"/>
			<path fill="#FFFFFF" d="M390.8,284c-0.1,1.1,0.1,2.5-1,3.1c-1.6-0.2-3.1-0.9-4.5-1.8c0.7-0.9,1.7-1.3,2.6-1.7
				C388.9,283.2,389.9,283.8,390.8,284L390.8,284z"/>
			<path fill="#FFFFFF" d="M407.7,289.7c0.3,0.8,0.6,1.7,0.7,2.6c-0.5,0.2-1.1,0.2-1.6,0.5c-0.7,0.1-1.3,0.6-1.9,0.3
				c-0.7,0-1.5-0.2-2.2-0.7l0.7-2c1.1-0.9,2.3-1.5,3.3-2.5C407.2,288.3,407.5,289,407.7,289.7L407.7,289.7z"/>
			<path fill="#FFFFFF" d="M408,294.7c0.4,1.9,0.2,3.8-0.3,5.4c-1.7-0.7-4-0.2-5.4-1.6c-0.2-0.4-0.6-0.7-0.5-1.3
				c0.7-0.7,1.4-0.8,2-1.5C405,294.8,406.5,295,408,294.7L408,294.7z"/>
			<path fill="#FFFFFF" d="M405.7,302.4c0.4,0.5,1.7,0.4,1.4,1.3c-0.6,1.3-1.4,2.4-2.6,3.2c-1.6-1.1-3.2-2.2-4.8-3.2
				c0-0.8-0.4-1.5-0.4-2.4c1.2,0.1,2.2-0.9,3.4-0.2C403.8,301.4,404.7,302.2,405.7,302.4L405.7,302.4z"/>
			<path fill="#FFFFFF" d="M398.1,304.8c1.5,1.5,3.1,2.5,4.5,4.1c-0.8,0.5-1.4,1.1-2.2,1.7c-0.5,0.3-1.1,0.9-1.7,1.3h-0.2
				c-1.1-1.3-2.1-2.7-3.2-4l0.1-3.5C396,304.4,397.2,304.6,398.1,304.8L398.1,304.8z"/>
			<path fill="#FFFFFF" d="M392.3,308.5L392.3,308.5c1.4,1.4,3.1,3.2,4.3,4.7c-0.4,0.8-1.3,1.2-1.9,1.7L393,316
				c-1.3-1.1-2.2-2.7-3.2-4.1c-0.2-1.4-0.5-2.9-0.4-4.3C390.4,307.9,391.5,307.9,392.3,308.5L392.3,308.5z"/>
			<path fill="#FFFFFF" d="M388.3,313.4c0.8,1.3,2.3,2.4,3.4,3.7c-0.7,0.8-0.2,2.3-0.4,3.3c-1.7-0.1-3.2-1-4.6-1.9l-1.6-1.3
				c-0.3-1.3,0.2-2.7,0.2-4.1C386.2,313.2,387.2,313.4,388.3,313.4L388.3,313.4z"/>
			<path fill="#FFFFFF" d="M391.3,321.9v4.4c-1.5,0.2-2.9,0.5-4.4,0.2l-2-2.2c0.4-1.1,1-2,1.6-3C388,321.5,389.6,321.6,391.3,321.9
				L391.3,321.9z"/>
			<path fill="#FFFFFF" d="M399.4,324.1c-0.2,0.2-0.6,0.3-0.8,0.6c-0.1-0.7-0.1-1.2,0-1.9C398.8,323.2,399.6,323.5,399.4,324.1
				L399.4,324.1z"/>
			<path fill="#FFFFFF" d="M402.4,326.1c0.8,0.7,1.9,1.6,2.6,2.4c-1.6,1.3-3.7,2.3-5.8,2.8c-0.2,0-0.4-0.1-0.5,0.1l-0.1-5
				c0.8-0.5,1.3-2.9,2.5-1.4L402.4,326.1L402.4,326.1z"/>
			<path fill="#FFFFFF" d="M408.1,335.7c-1.4,1.1-2.7,2.3-4.4,2.5c-1.1,0.6-2.6,0.5-3.7-0.2c-0.5-0.7-1-1.3-1.2-2.1
				c0.8-0.8,1.8-1.4,2.7-2.1c1-0.4,2.1-0.6,2.9-1.4l0.4-0.1c0.5-0.5,1.3-0.8,1.6-1.4l0.3-0.2C407.4,332.2,408.2,333.8,408.1,335.7
				L408.1,335.7z"/>
			<path fill="#FFFFFF" d="M405.7,341.8c-1,1.3-2.5,2.2-3.8,3c-1.9-0.3-4.1,0.1-5.9-0.9c-0.9-0.6-0.5-2-0.6-3.1
				c1.5-0.3,3.2-0.8,4.6-0.2c2.9,0.7,5.9,0.1,7.8-2.2C407.4,339.7,406.8,341.1,405.7,341.8L405.7,341.8z"/>
			<path fill="#FFFFFF" d="M393.1,344.6v0.1c0.5-0.2,0.9,0.2,1.4,0.4c1.3,0.4,2.4,1.1,3.8,1.2c-1.7,0.9-3.7,1.5-5.3,2.6
				c-1-0.7-2.1-1.7-3.1-2.3c0.1-0.8-0.2-1.8,0.3-2.4C391.1,344.4,392,344.6,393.1,344.6L393.1,344.6z"/>
			<path fill="#FFFFFF" d="M391.4,350.5l0.2,4.6c-0.5,0.1-1.1,0.4-1.5,0.4c-0.2-0.4-0.5,0.1-0.8,0l-0.8-1.1l0.1,0.1l0.2-0.2
				c-0.6-0.2-1.4-1.1-1.6-1.8c0.7-1,1.8-1.6,2.8-2.6C390.4,350.1,390.8,350.5,391.4,350.5L391.4,350.5z"/>
			<path fill="#FFFFFF" d="M400.1,357.5c0.6,0.5,1,1.1,1.1,1.9c-0.7,0.2-1.3,0.7-2,0.7c-0.4,0.3-0.6,0.1-1,0.3
				c0.1-1.3-0.7-3.4,0.8-4.1C399.3,356.8,400,357,400.1,357.5L400.1,357.5z"/>
			<path fill="#FFFFFF" d="M401.7,362.6c1.2,0.1,0.2,1.4,0.5,2.2c-0.2,0.8-0.2,1.7-0.9,2.2c-0.8-1-1.7-1.4-2.4-2.3
				c-0.5,0.2-0.9,0.1-1.4-0.1c0.8-0.7,0.5-2,1.6-2.2C400.1,362.1,400.9,362.7,401.7,362.6L401.7,362.6z"/>
			<path fill="#FFFFFF" d="M397.2,370.2c-1.1,0.6-2.5,1-3.9,0.8c0.1-1.4,0.7-2.9,0.1-4.2c0.4-0.2,1.1-0.7,1.7-0.2
				C396.4,367.4,396.9,368.9,397.2,370.2L397.2,370.2z"/>
			<path fill="#FFFFFF" d="M390.8,367c0.3,1.1-0.1,2.2-1.1,2.6c-0.7,0-1.5-0.5-2.1-0.9l-0.3-0.4c0.5-0.8,1.4-1,2.1-1.7L390.8,367
				L390.8,367z"/>
			<path fill="#FFFFFF" d="M387.6,365.9c-0.2-0.4-0.5-0.5-0.8-0.8c-0.1-0.1-0.1-0.2-0.2-0.3c-0.3-0.4-0.5-0.8-0.8-1.3
				c-0.1-0.2-0.2-0.5-0.4-0.7c-0.2-0.2-0.4-0.5-0.5-0.7c-0.1-0.4-0.2-0.8-0.5-1.2c0-0.2-0.1-0.4-0.2-0.5l0.1,0.1
				c-0.1-0.2-0.2-0.4-0.4-0.5l0.1,0.1c-0.1-0.2-0.2-0.4-0.2-0.5l0,0c0-0.2-0.2-0.3-0.3-0.3c-0.2,0-0.3,0.2-0.3,0.3
				c0.1,0.4,0.2,0.7,0.4,0.9l-0.1-0.1c0.1,0.2,0.2,0.4,0.3,0.5c0-0.1-0.1-0.1-0.1-0.1c0.1,0.4,0.2,0.7,0.4,1
				c0.1,0.2,0.1,0.5,0.2,0.7c0.1,0.2,0.3,0.5,0.5,0.7c0.2,0.4,0.5,0.8,0.7,1.2c0.2,0.3,0.3,0.6,0.5,0.8c0.2,0.4,0.5,0.7,0.8,1
				c0.1,0.1,0.1,0.1,0.1,0.2c0.1,0.2,0.3,0.2,0.4,0.1C387.7,366.3,387.7,366.1,387.6,365.9L387.6,365.9L387.6,365.9z"/>
			<path fill="#FFFFFF" d="M385.4,360.8c-0.7,0.2-1.4,0.4-2,0.6c-0.2,0.1-0.3,0.2-0.2,0.4c0.1,0.2,0.2,0.3,0.4,0.2
				c0.1,0,0.2-0.1,0.2-0.1h-0.1c0.7-0.1,1.3-0.4,1.9-0.5c0.2-0.1,0.2-0.2,0.2-0.4C385.8,360.8,385.6,360.8,385.4,360.8L385.4,360.8
				L385.4,360.8z"/>
			<path fill="#FFFFFF" d="M386.5,362.7c-0.3,0.1-0.7,0.2-1,0.4c-0.4,0.1-0.7,0.2-1,0.2c-0.1,0-0.1,0.1-0.2,0.1c0,0,0.1,0,0.1-0.1
				c-0.1,0.1-0.2,0.1-0.3,0.2c0.1-0.1,0.1-0.1,0.1-0.1c-0.2,0.1-0.2,0.2-0.2,0.4c0.1,0.2,0.2,0.2,0.4,0.2c0.1-0.1,0.1-0.1,0.2-0.1
				c-0.1,0-0.1,0.1-0.2,0.1c0.1,0,0.2,0,0.3-0.1h-0.1c0.4,0,0.7-0.1,1-0.2c0.4-0.1,0.8-0.3,1.1-0.4c0.2-0.1,0.2-0.2,0.2-0.4
				C386.8,362.7,386.6,362.6,386.5,362.7L386.5,362.7L386.5,362.7z"/>
			<path fill="#FFFFFF" d="M387.1,364.5c-0.4,0.2-0.8,0.4-1.1,0.6c-0.1-0.1-0.2,0.1-0.3,0.1c-0.2,0.1-0.2,0.3-0.1,0.4
				c0.1,0.2,0.3,0.2,0.4,0.1h0.1c-0.1,0-0.1,0-0.1,0c0.5-0.1,1-0.4,1.5-0.7c0.2-0.1,0.2-0.3,0.1-0.4S387.2,364.4,387.1,364.5
				L387.1,364.5L387.1,364.5z"/>
			<path fill="#FFFFFF" d="M384.2,359.3c-0.4,0-0.8,0.2-1.2,0.4c0,0,0.1,0,0.1-0.1c0,0,0,0-0.1,0c-0.2,0-0.3,0.1-0.3,0.3
				c0,0.2,0.1,0.3,0.3,0.3c0.3,0,0.5-0.2,0.8-0.3c0.1-0.1,0.2-0.1,0.4-0.1c0.2,0,0.3-0.2,0.3-0.4
				C384.5,359.5,384.3,359.3,384.2,359.3L384.2,359.3L384.2,359.3z"/>
			<path fill="#FFFFFF" d="M397.6,321.9c0,0,11.9,1.9,11.9,13.9c0,7.2-7.2,11.1-12,12.9c0,0-0.1,5.6,0,5.6c2.7,1.6,5,4.9,5.6,8.2
				l0,0h7.9v-34.1l29.6,17.1l15.9-27.5l-29.6-17.1l29.6-17.1l-15.9-27.5L411,273.2v-20.9c0.2,0,0.4,0.1,0.6,0.1
				c-6.6-1-16.7-1.3-14.7,5.8c1.3-0.1,2.7-0.1,4.1,0c1,0.2,2.2,0.3,3.1,0.8c1.1-0.1,1.9,1.1,2.9,0.5c0.8,0.2,2,0.1,2.2,1.3
				c0.3,2.3-1.1,4.4-2.5,6.2c-2.9-0.5-7.2-0.2-7.9-0.5c-0.1,0.1,0.2,0.4,0.2,0.5c0.4,0.6,1.3,0.2,1.9,0.2c1.7,0.1,5.6,0.2,5.4,0.4
				c-2,0.7-5.6,0.9-7.5,0.8c-0.8-0.1-1.4-0.2-2.1-0.5l0,0c0.1,1.4,0.1,5.9,0.2,10.8c0.8,0.1,13.2,2.4,13.2,17
				c0,11.3-7.2,16.7-12.6,19.9"/>
			<path fill="none" stroke="#FFFFFF" d="M397.6,321.9c0,0,11.9,1.9,11.9,13.9c0,7.2-7.2,11.1-12,12.9c0,0-0.1,5.6,0,5.6
				c2.7,1.6,5,4.9,5.6,8.2l0,0h7.9v-34.1l29.6,17.1l15.9-27.5l-29.6-17.1l29.6-17.1l-15.9-27.5L411,273.2v-20.9
				c0.2,0,0.4,0.1,0.6,0.1c-6.6-1-16.7-1.3-14.7,5.8c1.3-0.1,2.7-0.1,4.1,0c1,0.2,2.2,0.3,3.1,0.8c1.1-0.1,1.9,1.1,2.9,0.5
				c0.8,0.2,2,0.1,2.2,1.3c0.3,2.3-1.1,4.4-2.5,6.2c-2.9-0.5-7.2-0.2-7.9-0.5c-0.1,0.1,0.2,0.4,0.2,0.5c0.4,0.6,1.3,0.2,1.9,0.2
				c1.7,0.1,5.6,0.2,5.4,0.4c-2,0.7-5.6,0.9-7.5,0.8c-0.8-0.1-1.4-0.2-2.1-0.5l0,0c0.1,1.4,0.1,5.9,0.2,10.8
				c0.8,0.1,13.2,2.4,13.2,17c0,11.3-7.2,16.7-12.6,19.9"/>
			<path fill="#FFFFFF" d="M386.9,249.6V248c-2.7,0.5-6.2,2.7-8.7,4.6c0.3-0.2,0.6-0.5,1-0.7v15.9l0,0c0.2-0.4,0.4-0.8,0.6-1.2
				c2.5-4.3,6.7-7.7,11.7-8.3h-0.1C392.1,256.2,389.9,249.8,386.9,249.6L386.9,249.6z"/>
			<path fill="none" stroke="#FFFFFF" stroke-width="2" d="M386.9,249.6V248c-2.7,0.5-6.2,2.7-8.7,4.6c0.3-0.2,0.6-0.5,1-0.7v15.9
				l0,0c0.2-0.4,0.4-0.8,0.6-1.2c2.5-4.3,6.7-7.7,11.7-8.3h-0.1C392.1,256.2,389.9,249.8,386.9,249.6L386.9,249.6z"/>
			<path fill="#FFFFFF" d="M394.4,243.3c5.1,0,11.1,1.3,16.6,3.1H411v-7.2h-31.8v7l0,0C382.9,244.7,388.1,243.3,394.4,243.3
				L394.4,243.3z"/>
			<path fill="none" stroke="#FFFFFF" stroke-width="2" d="M394.4,243.3c5.1,0,11.1,1.3,16.6,3.1H411v-7.2h-31.8v7l0,0
				C382.9,244.7,388.1,243.3,394.4,243.3L394.4,243.3z"/>
			<path fill="#FFFFFF" d="M382.4,362.5c-0.1-0.1-0.1-0.1-0.2-0.2c-0.3-0.7,0.7-0.7,0.5-1.4c-0.2-0.2-1-0.2-1.1-0.7
				c0-0.8,0.2-1.7,0.9-2.2c0.7-0.7,2.2,0.2,2.8,0.7c0.4,0.3-0.3,0.9,0.1,1.2c0.4,0.4,1,0.1,1.1,0.5c0.3,0.3,0,1.1,0.2,1.3
				c0.2,0.3,0.7,0.2,1,0.5c0.1,0,0.1,0.1,0.1,0.1h5.8c-0.1-0.6-0.1-1.3-0.1-1.9c-0.5-0.1-8.6-2.6-8.6-11.5c0-5.3,3.5-8.4,8-11.8
				l-0.1-0.2c0,0,0-1.9,0-4.4c-0.3-0.1-11-2-11-15.4c0-8.5,6.2-14.2,10.7-17.7c0,0-0.7-29.9-0.6-33.2c0,0-3,2.3-3,6.1
				c0,3.7,3.1,5.3,3.1,5.3l0.1,11.3c-4.7-0.8-10.1-4.6-12.8-8.9c-1.6-2.2-1.9-5-1.6-7.8L349.6,256l-15.9,27.5l29.6,17.2l-29.6,17.1
				l15.9,27.5l29.6-17.1v34.1H382.4L382.4,362.5z"/>
			<path fill="none" stroke="#FFFFFF" d="M382.4,362.5c-0.1-0.1-0.1-0.1-0.2-0.2c-0.3-0.7,0.7-0.7,0.5-1.4c-0.2-0.2-1-0.2-1.1-0.7
				c0-0.8,0.2-1.7,0.9-2.2c0.7-0.7,2.2,0.2,2.8,0.7c0.4,0.3-0.3,0.9,0.1,1.2c0.4,0.4,1,0.1,1.1,0.5c0.3,0.3,0,1.1,0.2,1.3
				c0.2,0.3,0.7,0.2,1,0.5c0.1,0,0.1,0.1,0.1,0.1h5.8c-0.1-0.6-0.1-1.3-0.1-1.9c-0.5-0.1-8.6-2.6-8.6-11.5c0-5.3,3.5-8.4,8-11.8
				l-0.1-0.2c0,0,0-1.9,0-4.4c-0.3-0.1-11-2-11-15.4c0-8.5,6.2-14.2,10.7-17.7c0,0-0.7-29.9-0.6-33.2c0,0-3,2.3-3,6.1
				c0,3.7,3.1,5.3,3.1,5.3l0.1,11.3c-4.7-0.8-10.1-4.6-12.8-8.9c-1.6-2.2-1.9-5-1.6-7.8L349.6,256l-15.9,27.5l29.6,17.2l-29.6,17.1
				l15.9,27.5l29.6-17.1v34.1H382.4L382.4,362.5z"/>
			<path fill="none" stroke="#FFFFFF" stroke-width="2" d="M397.1,371.9c0,0.1-0.2,3.4-1.7,3.4c-1.4,0-1.4-3.2-1.4-3.2
				S396,372.5,397.1,371.9L397.1,371.9z"/>
			<path fill="none" stroke="#FFFFFF" stroke-width="2" stroke-linejoin="round" d="M397.5,348.6l-0.1,7.8c-0.7,0.4-2.6,1-4.4,0
				c0.2-1.7-0.5-5,0.2-6.5C394,349.6,397.5,348.6,397.5,348.6L397.5,348.6z"/>
			<path fill="none" stroke="#FFFFFF" stroke-width="2" d="M396.5,267.7c0.2,3.8,0.4,28.8,0.4,28.8c-1.4,1-2.8,2.2-4.3,3
				c0,0-0.7-29.9-0.6-33.2C393,265.3,396.5,267.7,396.5,267.7L396.5,267.7z M394.4,251.3c-1.2,0-2.2-1-2.2-2.2c0-1.2,1-2.2,2.2-2.2
				s2.2,1,2.2,2.2C396.5,250.3,395.6,251.3,394.4,251.3L394.4,251.3z M426.1,252.9c0.4-0.9-18.7-9.6-31.7-9.6
				c-13.2,0-21.7,5.9-22.3,6.6c0.7,1.8,1.5,3.5,3.1,5c0.3,0.2,0.6-0.3,0.8-0.5c2.3-1.9,7.4-5.8,11-6.5v1.6c2.9,0.2,5.2,6.5,4.4,8.7
				l5.5-0.1c-2.9-10.4,20.2-4.8,20.2-4.8l0.7-2l1.7,2.9l1.1-1.4l1.3,2.3l0.8-1.6l1.7,2.3L426.1,252.9L426.1,252.9L426.1,252.9z"/>
			<path fill="#FFFFFF" d="M394.4,247c-1.2,0-2.2,1-2.2,2.2c0,1.2,1,2.2,2.2,2.2s2.2-1,2.2-2.2C396.5,248,395.6,247,394.4,247
				L394.4,247z"/>
			<line fill="none" stroke="#FFFFFF" stroke-width="2" x1="391.3" y1="255.9" x2="396.7" y2="255.9"/>
			<path fill="none" stroke="#FFFFFF" stroke-width="2" stroke-linejoin="round" d="M397.7,315.3c-1.4,0.8-3.4,1.9-4.7,2.9
				c-0.1,2.9,0.1,19,0.1,19l4.8-3.4C397.7,334,397.7,315.3,397.7,315.3L397.7,315.3z"/>
			<path fill="none" stroke="#FFFFFF" stroke-width="2" stroke-linecap="round" stroke-linejoin="round" d="M397,356.7
				c0,0.7-0.1,7.3-0.1,7.3c-0.4,0.5-3,1.3-3,1.3s-0.6-5.3-0.4-8.6C393.5,356.7,395.4,357.4,397,356.7L397,356.7z"/>
			<g>
				<rect x="303.9" y="213.9" fill="none" width="182.3" height="182.3"/>
				<path fill="none" stroke="#FFFFFF" stroke-width="2" d="M395,377.5c40,0,72.4-32.4,72.4-72.4S435,232.6,395,232.6
					s-72.4,32.5-72.4,72.5S355,377.5,395,377.5L395,377.5z"/>
				<rect x="303.9" y="213.9" fill="none" width="182.3" height="182.3"/>
				<path fill="none" stroke="#FFFFFF" stroke-width="2" d="M395,395.6c50,0,90.5-40.5,90.5-90.5S445,214.5,395,214.5
					s-90.5,40.5-90.5,90.5S345,395.6,395,395.6L395,395.6z"/>
			</g>
			<path fill="#FFFFFF" d="M379.3,377.8L379.3,377.8c1,0.2,1.8,0.5,2.6,0.8c0.7,0.2,1.4,0.3,2,0.4l0.1,0.1l-0.2,0.6l-0.1,0.1
				c-0.7-0.2-1.3-0.2-1.6,0c-0.4,0.3-2,6.3-2.5,7.7c-0.7,2.3-1,4.1-1.3,5.2l-0.1,0.1c-0.4-0.3-1.3-0.7-1.7-0.8c-1-2-4.1-9-6-13.5
				h-0.1l-1.4,5.2c-1.3,4.6-1.3,4.7-1.1,5c0.1,0.2,0.7,0.5,1.4,0.7l0.1,0.1l-0.2,0.5l-0.1,0.1c-0.8-0.2-1.5-0.5-2.3-0.7
				s-1.6-0.4-2.3-0.5l-0.1-0.1l0.2-0.6l0.1-0.1c0.7,0.2,1.4,0.2,1.6,0.2c0.2-0.1,0.4-0.3,1.6-4.9l0.5-2c1.3-4.6,1.3-4.7,1.1-5
				c-0.1-0.2-0.7-0.5-1.4-0.7l-0.1-0.1l0.2-0.6l0.1-0.1c0.7,0.2,1.4,0.5,2.2,0.7c0.6,0.2,1,0.2,1.5,0.3c0.4,1.4,4.9,11.6,5.9,13.7
				h0.1c0.2-0.6,0.7-2.8,1.4-5.4c1.3-4.6,1.3-4.7,1.1-5c-0.1-0.2-0.7-0.5-1.4-0.7l-0.1-0.1L379.3,377.8L379.3,377.8z"/>
			<path fill="none" d="M379.3,377.8L379.3,377.8c1,0.2,1.8,0.5,2.6,0.8c0.7,0.2,1.4,0.3,2,0.4l0.1,0.1l-0.2,0.6l-0.1,0.1
				c-0.7-0.2-1.3-0.2-1.6,0c-0.4,0.3-2,6.3-2.5,7.7c-0.7,2.3-1,4.1-1.3,5.2l-0.1,0.1c-0.4-0.3-1.3-0.7-1.7-0.8c-1-2-4.1-9-6-13.5
				h-0.1l-1.4,5.2c-1.3,4.6-1.3,4.7-1.1,5c0.1,0.2,0.7,0.5,1.4,0.7l0.1,0.1l-0.2,0.5l-0.1,0.1c-0.8-0.2-1.5-0.5-2.3-0.7
				s-1.6-0.4-2.3-0.5l-0.1-0.1l0.2-0.6l0.1-0.1c0.7,0.2,1.4,0.2,1.6,0.2c0.2-0.1,0.4-0.3,1.6-4.9l0.5-2c1.3-4.6,1.3-4.7,1.1-5
				c-0.1-0.2-0.7-0.5-1.4-0.7l-0.1-0.1l0.2-0.6l0.1-0.1c0.7,0.2,1.4,0.5,2.2,0.7c0.6,0.2,1,0.2,1.5,0.3c0.4,1.4,4.9,11.6,5.9,13.7
				h0.1c0.2-0.6,0.7-2.8,1.4-5.4c1.3-4.6,1.3-4.7,1.1-5c-0.1-0.2-0.7-0.5-1.4-0.7l-0.1-0.1L379.3,377.8L379.3,377.8z"/>
			<path fill="#FFFFFF" d="M391.8,380.1c-2.9-0.1-5.2,1.9-5.3,5.3c-0.2,4.4,2,7.4,5.1,7.5c3.3,0.2,5-2.5,5.2-5.8
				C397.1,381.8,394,380.2,391.8,380.1L391.8,380.1z M392.2,379.1c4.1,0.2,7.2,2.6,7.1,7.4c-0.2,4.3-3.6,7.5-8.3,7.4
				c-5.6-0.2-7.1-4.4-6.9-7.8C384.3,381.4,387.8,378.9,392.2,379.1L392.2,379.1z"/>
			<path fill="none" d="M391.8,380.1c-2.9-0.1-5.2,1.9-5.3,5.3c-0.2,4.4,2,7.4,5.1,7.5c3.3,0.2,5-2.5,5.2-5.8
				C397.1,381.8,394,380.2,391.8,380.1L391.8,380.1z M392.2,379.1c4.1,0.2,7.2,2.6,7.1,7.4c-0.2,4.3-3.6,7.5-8.3,7.4
				c-5.6-0.2-7.1-4.4-6.9-7.8C384.3,381.4,387.8,378.9,392.2,379.1L392.2,379.1z"/>
			<path fill="#FFFFFF" d="M400.4,379.5L400.4,379.5c1.1-0.2,2-0.2,3-0.4c1-0.1,1.9-0.4,2.9-0.5l0.1,0.1l0.1,0.6l-0.1,0.1
				c-0.8,0.1-1.4,0.3-1.5,0.5c-0.2,0.2-0.2,0.4,0.5,5.1l0.2,1.4c0.3,1.9,0.5,3.8,0.8,5.6c1.1-0.2,5.3-0.8,5.6-1.2
				c0.2-0.2,0.2-1,0.3-2.2l0.1-0.1l0.7-0.1l0.1,0.1c0.1,1,0.2,2.3,0.2,3.6c-2.9,0.4-5.9,0.8-8.3,1.1c-0.5,0.1-1,0.2-1.7,0.4
				l-0.1-0.1l-0.1-0.4l0.1-0.1c0.7-0.4,0.8-0.5,0.8-0.7c0.1-0.2,0.1-0.4-0.9-7c-0.7-4.7-0.8-4.9-1-5c-0.2-0.1-0.8-0.1-1.6-0.1
				l-0.1-0.1L400.4,379.5L400.4,379.5z"/>
			<path fill="none" d="M400.4,379.5L400.4,379.5c1.1-0.2,2-0.2,3-0.4c1-0.1,1.9-0.4,2.9-0.5l0.1,0.1l0.1,0.6l-0.1,0.1
				c-0.8,0.1-1.4,0.3-1.5,0.5c-0.2,0.2-0.2,0.4,0.5,5.1l0.2,1.4c0.3,1.9,0.5,3.8,0.8,5.6c1.1-0.2,5.3-0.8,5.6-1.2
				c0.2-0.2,0.2-1,0.3-2.2l0.1-0.1l0.7-0.1l0.1,0.1c0.1,1,0.2,2.3,0.2,3.6c-2.9,0.4-5.9,0.8-8.3,1.1c-0.5,0.1-1,0.2-1.7,0.4
				l-0.1-0.1l-0.1-0.4l0.1-0.1c0.7-0.4,0.8-0.5,0.8-0.7c0.1-0.2,0.1-0.4-0.9-7c-0.7-4.7-0.8-4.9-1-5c-0.2-0.1-0.8-0.1-1.6-0.1
				l-0.1-0.1L400.4,379.5L400.4,379.5z"/>
			<path fill="#FFFFFF" d="M416.9,387.3L416.9,387.3c0.3,0.8,0.4,1,0.5,1.3c0.1,0.3,1.4,1.1,3.6,0.4c2.2-0.7,3.1-2.2,2.5-4.1
				c-1.3-3.9-7.8,2-9.5-3.3c-0.8-2.6,0.5-4.9,3.8-6c1.1-0.4,2.8-0.6,3.9-0.4l0.1,0.1c0,0.7,0.4,2.2,0.5,2.7l-0.1,0.1l-0.7,0.1
				l-0.1-0.1c-0.4-1.1-0.4-1.4-0.6-1.5c-0.4-0.2-1.6-0.5-3.1-0.1c-2.1,0.7-2.6,2.2-2.2,3.5c0.5,1.7,1.6,1.7,4.9,1.2
				c2.3-0.4,3.9,0,4.5,2c0.7,2.1-0.1,5.3-4.4,6.6c-1.4,0.5-3,0.5-3.9,0.4l-0.1-0.1c-0.1-0.9-0.4-2-0.7-2.8l0.1-0.1L416.9,387.3
				L416.9,387.3z"/>
			<path fill="none" d="M416.9,387.3L416.9,387.3c0.3,0.8,0.4,1,0.5,1.3c0.1,0.3,1.4,1.1,3.6,0.4c2.2-0.7,3.1-2.2,2.5-4.1
				c-1.3-3.9-7.8,2-9.5-3.3c-0.8-2.6,0.5-4.9,3.8-6c1.1-0.4,2.8-0.6,3.9-0.4l0.1,0.1c0,0.7,0.4,2.2,0.5,2.7l-0.1,0.1l-0.7,0.1
				l-0.1-0.1c-0.4-1.1-0.4-1.4-0.6-1.5c-0.4-0.2-1.6-0.5-3.1-0.1c-2.1,0.7-2.6,2.2-2.2,3.5c0.5,1.7,1.6,1.7,4.9,1.2
				c2.3-0.4,3.9,0,4.5,2c0.7,2.1-0.1,5.3-4.4,6.6c-1.4,0.5-3,0.5-3.9,0.4l-0.1-0.1c-0.1-0.9-0.4-2-0.7-2.8l0.1-0.1L416.9,387.3
				L416.9,387.3z"/>
			<path fill="#FFFFFF" d="M316.3,342.7L316.3,342.7c-0.4-0.7-0.7-1.3-1-1.9c-0.2-0.5-0.5-0.9-0.9-1.4v-0.1l0.5-0.2h0.1
				c0.4,0.7,0.6,0.9,1.4,0.7c1.1-0.2,8.1-1.8,11.1-2.6l0.5,0.7l-6.6,8.1c3.5-0.3,9.1-0.7,10.6-1l0.4,0.7l-8.1,7.7
				c-0.7,0.7-0.8,0.8-0.3,1.7v0.1l-0.5,0.2h-0.1c-0.4-0.7-0.7-1.4-1.1-2.2c-0.4-0.7-0.8-1.3-1.2-1.9v-0.1l0.5-0.2h0.1
				c0.5,0.9,0.8,1.1,1.1,0.9c0.5-0.3,4-3.4,6.2-5.6v-0.1c-3.5,0.2-9.8,0.7-10.3,0.8l-0.3-0.5c0.5-0.5,4.3-5.2,6.3-7.8v-0.1
				c-5.9,1.4-7.7,1.9-8.1,2.1c-0.5,0.3-0.2,0.7,0.1,1.5v0.1L316.3,342.7L316.3,342.7z"/>
			<path fill="none" d="M316.3,342.7L316.3,342.7c-0.4-0.7-0.7-1.3-1-1.9c-0.2-0.5-0.5-0.9-0.9-1.4v-0.1l0.5-0.2h0.1
				c0.4,0.7,0.6,0.9,1.4,0.7c1.1-0.2,8.1-1.8,11.1-2.6l0.5,0.7l-6.6,8.1c3.5-0.3,9.1-0.7,10.6-1l0.4,0.7l-8.1,7.7
				c-0.7,0.7-0.8,0.8-0.3,1.7v0.1l-0.5,0.2h-0.1c-0.4-0.7-0.7-1.4-1.1-2.2c-0.4-0.7-0.8-1.3-1.2-1.9v-0.1l0.5-0.2h0.1
				c0.5,0.9,0.8,1.1,1.1,0.9c0.5-0.3,4-3.4,6.2-5.6v-0.1c-3.5,0.2-9.8,0.7-10.3,0.8l-0.3-0.5c0.5-0.5,4.3-5.2,6.3-7.8v-0.1
				c-5.9,1.4-7.7,1.9-8.1,2.1c-0.5,0.3-0.2,0.7,0.1,1.5v0.1L316.3,342.7L316.3,342.7z"/>
			<path fill="#FFFFFF" d="M313.8,336.5L313.8,336.5c-0.3-0.9-0.5-1.7-0.8-2.5c-0.3-0.8-0.6-1.6-1-2.4l0.1-0.1l0.5-0.2l0.1,0.1
				c0.2,0.7,0.5,1.1,0.7,1.2c0.2,0.1,0.4,0.1,4.3-1.3l1.7-0.6c3.9-1.4,4-1.5,4.1-1.7c0.1-0.2,0-0.7-0.2-1.4l0.1-0.1l0.5-0.2l0.1,0.1
				c0.2,0.8,0.5,1.7,0.8,2.5c0.3,0.8,0.6,1.6,1,2.4l-0.1,0.1l-0.5,0.2l-0.1-0.1c-0.2-0.7-0.5-1.1-0.7-1.2c-0.2-0.1-0.4-0.1-4.3,1.3
				l-1.7,0.6c-3.9,1.4-4,1.5-4.1,1.7c-0.1,0.2,0,0.7,0.2,1.4l-0.1,0.1L313.8,336.5L313.8,336.5z"/>
			<path fill="none" d="M313.8,336.5L313.8,336.5c-0.3-0.9-0.5-1.7-0.8-2.5c-0.3-0.8-0.6-1.6-1-2.4l0.1-0.1l0.5-0.2l0.1,0.1
				c0.2,0.7,0.5,1.1,0.7,1.2c0.2,0.1,0.4,0.1,4.3-1.3l1.7-0.6c3.9-1.4,4-1.5,4.1-1.7c0.1-0.2,0-0.7-0.2-1.4l0.1-0.1l0.5-0.2l0.1,0.1
				c0.2,0.8,0.5,1.7,0.8,2.5c0.3,0.8,0.6,1.6,1,2.4l-0.1,0.1l-0.5,0.2l-0.1-0.1c-0.2-0.7-0.5-1.1-0.7-1.2c-0.2-0.1-0.4-0.1-4.3,1.3
				l-1.7,0.6c-3.9,1.4-4,1.5-4.1,1.7c-0.1,0.2,0,0.7,0.2,1.4l-0.1,0.1L313.8,336.5L313.8,336.5z"/>
			<path fill="#FFFFFF" d="M311.1,328.9L311.1,328.9c-0.2-1-0.4-1.8-0.5-2.6c-0.2-0.8-0.4-1.7-0.7-2.5l0.1-0.1l0.5-0.1l0.1,0.1
				c0.1,0.7,0.4,1.1,0.5,1.3c0.2,0.2,0.4,0.2,4.4-0.7l1.2-0.2c1.6-0.4,3.2-0.7,4.9-1.1c-0.2-0.9-1-4.6-1.4-4.9
				c-0.2-0.1-0.9-0.1-2-0.1l-0.1-0.1l-0.1-0.5l0.1-0.1c0.8-0.1,2-0.3,3.1-0.4c0.5,2.5,1,5.1,1.5,7.1c0.1,0.4,0.2,0.9,0.4,1.5
				l-0.1,0.1l-0.4,0.1l-0.1-0.1c-0.4-0.5-0.5-0.7-0.7-0.7c-0.2,0-0.4-0.1-6,1.2c-4,0.9-4.2,1-4.3,1.2c-0.1,0.2-0.1,0.7,0.1,1.4
				l-0.1,0.1L311.1,328.9L311.1,328.9z"/>
			<path fill="none" d="M311.1,328.9L311.1,328.9c-0.2-1-0.4-1.8-0.5-2.6c-0.2-0.8-0.4-1.7-0.7-2.5l0.1-0.1l0.5-0.1l0.1,0.1
				c0.1,0.7,0.4,1.1,0.5,1.3c0.2,0.2,0.4,0.2,4.4-0.7l1.2-0.2c1.6-0.4,3.2-0.7,4.9-1.1c-0.2-0.9-1-4.6-1.4-4.9
				c-0.2-0.1-0.9-0.1-2-0.1l-0.1-0.1l-0.1-0.5l0.1-0.1c0.8-0.1,2-0.3,3.1-0.4c0.5,2.5,1,5.1,1.5,7.1c0.1,0.4,0.2,0.9,0.4,1.5
				l-0.1,0.1l-0.4,0.1l-0.1-0.1c-0.4-0.5-0.5-0.7-0.7-0.7c-0.2,0-0.4-0.1-6,1.2c-4,0.9-4.2,1-4.3,1.2c-0.1,0.2-0.1,0.7,0.1,1.4
				l-0.1,0.1L311.1,328.9L311.1,328.9z"/>
			<path fill="#FFFFFF" d="M308.9,310.1c0.1,1,0.1,1.4,0.2,2c1.2,0,2.6-0.1,5.1-0.2c2.9-0.1,4.2-0.2,5.3-0.3c0.1-0.5,0.1-1,0.1-1.6
				c-0.2-3.5-2.2-5.3-5.9-5.1C310.5,305,308.7,306.9,308.9,310.1L308.9,310.1z M308.3,315.8L308.3,315.8c-0.1-1-0.1-1.8-0.1-2.6
				c-0.1-0.9-0.2-1.8-0.2-2.9c-0.2-4.6,1.3-7.3,5.4-7.5c3-0.1,6.8,1.7,7,6.8c0.1,1.4,0,2.3,0.1,3.4c0,0.4,0.1,0.9,0.2,1.5l-0.1,0.1
				h-0.4l-0.1-0.1c-0.3-0.6-0.4-0.7-0.5-0.7c-0.2-0.1-0.4-0.1-6.2,0.2c-4.1,0.2-4.3,0.2-4.4,0.5c-0.1,0.2-0.2,0.7-0.2,1.4l-0.1,0.1
				H308.3L308.3,315.8z"/>
			<path fill="none" d="M308.9,310.1c0.1,1,0.1,1.4,0.2,2c1.2,0,2.6-0.1,5.1-0.2c2.9-0.1,4.2-0.2,5.3-0.3c0.1-0.5,0.1-1,0.1-1.6
				c-0.2-3.5-2.2-5.3-5.9-5.1C310.5,305,308.7,306.9,308.9,310.1L308.9,310.1z M308.3,315.8L308.3,315.8c-0.1-1-0.1-1.8-0.1-2.6
				c-0.1-0.9-0.2-1.8-0.2-2.9c-0.2-4.6,1.3-7.3,5.4-7.5c3-0.1,6.8,1.7,7,6.8c0.1,1.4,0,2.3,0.1,3.4c0,0.4,0.1,0.9,0.2,1.5l-0.1,0.1
				h-0.4l-0.1-0.1c-0.3-0.6-0.4-0.7-0.5-0.7c-0.2-0.1-0.4-0.1-6.2,0.2c-4.1,0.2-4.3,0.2-4.4,0.5c-0.1,0.2-0.2,0.7-0.2,1.4l-0.1,0.1
				H308.3L308.3,315.8z"/>
			<path fill="#FFFFFF" d="M308,299.2L308,299.2c0.1-1,0.2-1.8,0.4-2.6c0.4-3.3,0.7-5.5,0.8-6.6l0.1-0.1c0.9,0.2,1.9,0.4,2.7,0.5
				l0.1,0.1l-0.1,0.5l-0.1,0.1c-0.4-0.1-1.4-0.2-1.6-0.1c-0.2,0.2-0.5,1.6-0.7,3c-0.1,0.7-0.1,1.4-0.1,1.7c1.6,0.3,3.1,0.5,4.6,0.7
				c0.1-0.7,0.2-1.4,0.3-2c0.1-1,0.1-1.6-0.1-1.7c-0.2-0.2-0.9-0.4-1.2-0.4l-0.1-0.1l0.1-0.5l0.1-0.1c0.7,0.1,1.4,0.2,2.1,0.3
				c0.5,0.1,1.2,0.1,1.8,0.2l0.1,0.1l-0.1,0.5l-0.1,0.1c-0.2-0.1-1,0-1.3,0.1c-0.2,0.1-0.4,0.7-0.6,2.2c-0.1,0.6-0.1,1.1-0.2,1.6
				c1.6,0.2,3.3,0.4,4.9,0.6c0.1-1,0.6-4.6,0.4-5c-0.1-0.2-1.5-0.7-1.7-0.7l-0.1-0.2l0.1-0.5l0.1-0.1c0.7,0.2,1.9,0.4,2.9,0.5
				l0.1,0.2c-0.4,2.3-0.7,5-1,7.1c-0.1,0.4-0.1,0.9-0.1,1.6l-0.1,0.1l-0.4-0.1l-0.1-0.1c-0.2-0.6-0.2-0.8-0.4-0.8
				c-0.2-0.1-0.4-0.2-6.1-0.9c-4.1-0.5-4.3-0.5-4.5-0.3c-0.2,0.1-0.3,0.7-0.4,1.3l-0.1,0.1L308,299.2L308,299.2z"/>
			<path fill="none" d="M308,299.2L308,299.2c0.1-1,0.2-1.8,0.4-2.6c0.4-3.3,0.7-5.5,0.8-6.6l0.1-0.1c0.9,0.2,1.9,0.4,2.7,0.5
				l0.1,0.1l-0.1,0.5l-0.1,0.1c-0.4-0.1-1.4-0.2-1.6-0.1c-0.2,0.2-0.5,1.6-0.7,3c-0.1,0.7-0.1,1.4-0.1,1.7c1.6,0.3,3.1,0.5,4.6,0.7
				c0.1-0.7,0.2-1.4,0.3-2c0.1-1,0.1-1.6-0.1-1.7c-0.2-0.2-0.9-0.4-1.2-0.4l-0.1-0.1l0.1-0.5l0.1-0.1c0.7,0.1,1.4,0.2,2.1,0.3
				c0.5,0.1,1.2,0.1,1.8,0.2l0.1,0.1l-0.1,0.5l-0.1,0.1c-0.2-0.1-1,0-1.3,0.1c-0.2,0.1-0.4,0.7-0.6,2.2c-0.1,0.6-0.1,1.1-0.2,1.6
				c1.6,0.2,3.3,0.4,4.9,0.6c0.1-1,0.6-4.6,0.4-5c-0.1-0.2-1.5-0.7-1.7-0.7l-0.1-0.2l0.1-0.5l0.1-0.1c0.7,0.2,1.9,0.4,2.9,0.5
				l0.1,0.2c-0.4,2.3-0.7,5-1,7.1c-0.1,0.4-0.1,0.9-0.1,1.6l-0.1,0.1l-0.4-0.1l-0.1-0.1c-0.2-0.6-0.2-0.8-0.4-0.8
				c-0.2-0.1-0.4-0.2-6.1-0.9c-4.1-0.5-4.3-0.5-4.5-0.3c-0.2,0.1-0.3,0.7-0.4,1.3l-0.1,0.1L308,299.2L308,299.2z"/>
			<path fill="#FFFFFF" d="M316.7,282.9c0.1-0.2,0.1-0.4,0.2-0.5c0.5-1.8-0.4-3.1-1.7-3.5c-1.4-0.4-2.5,0.5-3,2.1
				c-0.1,0.5-0.2,1.1-0.2,1.6c0.7,0.2,1.7,0.6,5.8,1.8c4,1.1,4.1,1.1,4.4,1c0.2-0.1,0.4-0.6,0.6-1.2l0.1-0.1l0.5,0.1l0.1,0.1
				c-0.2,0.8-0.5,1.6-0.8,2.4s-0.4,1.7-0.7,2.5l-0.1,0.1l-0.5-0.1l-0.1-0.1c0.2-0.7,0.2-1.2,0.2-1.4c-0.1-0.2-0.2-0.4-4.2-1.5
				l-1.7-0.5c-4-1.1-4.1-1.1-4.4-1c-0.2,0.1-0.4,0.6-0.6,1.3l-0.1,0.1l-0.5-0.1l-0.1-0.1c0.3-0.8,0.6-1.7,0.8-2.5
				c0.3-1,0.5-2.1,0.8-3.1c0.7-2.5,1.7-4,3.8-3.4c2,0.6,2.6,2.4,2.5,4l5.7-1.9c0.7-0.2,0.8-0.4,1-0.9l0.1-0.1l0.5,0.1l0.1,0.1
				c-0.2,0.4-0.4,0.8-0.5,1.3c-0.1,0.5-0.2,0.9-0.3,1.4c-2.4,0.7-5.2,1.6-7.4,2.4L316.7,282.9L316.7,282.9z"/>
			<path fill="none" d="M316.7,282.9c0.1-0.2,0.1-0.4,0.2-0.5c0.5-1.8-0.4-3.1-1.7-3.5c-1.4-0.4-2.5,0.5-3,2.1
				c-0.1,0.5-0.2,1.1-0.2,1.6c0.7,0.2,1.7,0.6,5.8,1.8c4,1.1,4.1,1.1,4.4,1c0.2-0.1,0.4-0.6,0.6-1.2l0.1-0.1l0.5,0.1l0.1,0.1
				c-0.2,0.8-0.5,1.6-0.8,2.4s-0.4,1.7-0.7,2.5l-0.1,0.1l-0.5-0.1l-0.1-0.1c0.2-0.7,0.2-1.2,0.2-1.4c-0.1-0.2-0.2-0.4-4.2-1.5
				l-1.7-0.5c-4-1.1-4.1-1.1-4.4-1c-0.2,0.1-0.4,0.6-0.6,1.3l-0.1,0.1l-0.5-0.1l-0.1-0.1c0.3-0.8,0.6-1.7,0.8-2.5
				c0.3-1,0.5-2.1,0.8-3.1c0.7-2.5,1.7-4,3.8-3.4c2,0.6,2.6,2.4,2.5,4l5.7-1.9c0.7-0.2,0.8-0.4,1-0.9l0.1-0.1l0.5,0.1l0.1,0.1
				c-0.2,0.4-0.4,0.8-0.5,1.3c-0.1,0.5-0.2,0.9-0.3,1.4c-2.4,0.7-5.2,1.6-7.4,2.4L316.7,282.9L316.7,282.9z"/>
			<path fill="#FFFFFF" d="M318.7,262.9L318.7,262.9c0.4-0.8,0.8-1.4,1.1-2.2c0.3-0.5,0.5-1.1,0.7-1.7h0.1l0.5,0.2v0.1
				c-0.3,0.6-0.4,1-0.3,1.4c0.2,0.4,5,2.9,6.1,3.5c1.9,1,3.3,1.6,4.2,2l0.1,0.1c-0.3,0.3-0.8,1-1,1.3c-1.9,0.5-8.5,1.9-12.6,2.7v0.1
				l4.1,2.1c3.7,1.9,3.8,1.9,4.1,1.8c0.2-0.1,0.5-0.5,0.8-1.1h0.1l0.5,0.2v0.1c-0.4,0.6-0.7,1.2-1,1.9c-0.3,0.6-0.6,1.3-0.9,1.9
				h-0.1l-0.5-0.2v-0.1c0.3-0.6,0.5-1.1,0.4-1.3c-0.1-0.2-0.2-0.4-3.9-2.3l-1.6-0.8c-3.7-1.9-3.8-1.9-4.1-1.8
				c-0.2,0.1-0.5,0.5-0.8,1.1h-0.1l-0.5-0.2v-0.1c0.4-0.6,0.7-1.1,1-1.7c0.2-0.5,0.4-0.8,0.5-1.3c1.3-0.1,10.8-2.1,12.8-2.6v-0.1
				c-0.5-0.2-2.2-1.1-4.4-2.2c-3.7-1.9-3.8-1.9-4.1-1.8c-0.2,0.1-0.5,0.5-0.8,1.1h-0.1L318.7,262.9L318.7,262.9z"/>
			<path fill="none" d="M318.7,262.9L318.7,262.9c0.4-0.8,0.8-1.4,1.1-2.2c0.3-0.5,0.5-1.1,0.7-1.7h0.1l0.5,0.2v0.1
				c-0.3,0.6-0.4,1-0.3,1.4c0.2,0.4,5,2.9,6.1,3.5c1.9,1,3.3,1.6,4.2,2l0.1,0.1c-0.3,0.3-0.8,1-1,1.3c-1.9,0.5-8.5,1.9-12.6,2.7v0.1
				l4.1,2.1c3.7,1.9,3.8,1.9,4.1,1.8c0.2-0.1,0.5-0.5,0.8-1.1h0.1l0.5,0.2v0.1c-0.4,0.6-0.7,1.2-1,1.9c-0.3,0.6-0.6,1.3-0.9,1.9
				h-0.1l-0.5-0.2v-0.1c0.3-0.6,0.5-1.1,0.4-1.3c-0.1-0.2-0.2-0.4-3.9-2.3l-1.6-0.8c-3.7-1.9-3.8-1.9-4.1-1.8
				c-0.2,0.1-0.5,0.5-0.8,1.1h-0.1l-0.5-0.2v-0.1c0.4-0.6,0.7-1.1,1-1.7c0.2-0.5,0.4-0.8,0.5-1.3c1.3-0.1,10.8-2.1,12.8-2.6v-0.1
				c-0.5-0.2-2.2-1.1-4.4-2.2c-3.7-1.9-3.8-1.9-4.1-1.8c-0.2,0.1-0.5,0.5-0.8,1.1h-0.1L318.7,262.9L318.7,262.9z"/>
			<path fill="#FFFFFF" d="M322.6,256.3L322.6,256.3c0.5-0.7,1.1-1.4,1.7-2.1c2-2.6,3.4-4.4,4-5.4l0.1-0.1c0.7,0.7,1.4,1.3,2,1.9
				v0.1l-0.3,0.4h-0.1c-0.3-0.2-1.2-0.9-1.4-0.8c-0.2,0.1-1.3,1.1-2,2.2c-0.4,0.6-0.8,1.1-1,1.4c1.2,1,2.4,2,3.7,2.9
				c0.4-0.5,0.9-1.1,1.3-1.6c0.6-0.8,0.9-1.3,0.8-1.5c-0.1-0.3-0.6-0.8-0.8-1v-0.1l0.3-0.4h0.1c0.5,0.4,1.1,0.9,1.7,1.3
				c0.4,0.3,1,0.7,1.4,1.1v0.1l-0.3,0.4h-0.1c-0.2-0.2-0.8-0.5-1.2-0.6c-0.2-0.1-0.7,0.4-1.6,1.6c-0.4,0.5-0.7,0.8-0.9,1.3
				c1.3,1,2.6,2,4,3c0.6-0.8,2.8-3.7,2.9-4.1c0.1-0.2-1-1.3-1.2-1.5v-0.1l0.4-0.5h0.1c0.5,0.5,1.4,1.3,2.2,1.9v0.2
				c-1.5,1.9-3.1,4-4.4,5.6c-0.2,0.4-0.5,0.7-0.8,1.3H333l-0.2-0.2v-0.1c0.1-0.7,0.1-0.8,0.1-0.9c-0.1-0.1-0.2-0.3-4.9-3.8
				c-3.3-2.5-3.4-2.6-3.7-2.5c-0.2,0.1-0.6,0.4-1,1h-0.1L322.6,256.3L322.6,256.3z"/>
			<path fill="none" d="M322.6,256.3L322.6,256.3c0.5-0.7,1.1-1.4,1.7-2.1c2-2.6,3.4-4.4,4-5.4l0.1-0.1c0.7,0.7,1.4,1.3,2,1.9v0.1
				l-0.3,0.4h-0.1c-0.3-0.2-1.2-0.9-1.4-0.8c-0.2,0.1-1.3,1.1-2,2.2c-0.4,0.6-0.8,1.1-1,1.4c1.2,1,2.4,2,3.7,2.9
				c0.4-0.5,0.9-1.1,1.3-1.6c0.6-0.8,0.9-1.3,0.8-1.5c-0.1-0.3-0.6-0.8-0.8-1v-0.1l0.3-0.4h0.1c0.5,0.4,1.1,0.9,1.7,1.3
				c0.4,0.3,1,0.7,1.4,1.1v0.1l-0.3,0.4h-0.1c-0.2-0.2-0.8-0.5-1.2-0.6c-0.2-0.1-0.7,0.4-1.6,1.6c-0.4,0.5-0.7,0.8-0.9,1.3
				c1.3,1,2.6,2,4,3c0.6-0.8,2.8-3.7,2.9-4.1c0.1-0.2-1-1.3-1.2-1.5v-0.1l0.4-0.5h0.1c0.5,0.5,1.4,1.3,2.2,1.9v0.2
				c-1.5,1.9-3.1,4-4.4,5.6c-0.2,0.4-0.5,0.7-0.8,1.3H333l-0.2-0.2v-0.1c0.1-0.7,0.1-0.8,0.1-0.9c-0.1-0.1-0.2-0.3-4.9-3.8
				c-3.3-2.5-3.4-2.6-3.7-2.5c-0.2,0.1-0.6,0.4-1,1h-0.1L322.6,256.3L322.6,256.3z"/>
			<path fill="#FFFFFF" d="M338.3,251.5L338.3,251.5c0.5,0.5,0.7,0.6,0.9,0.8c0.2,0.2,1.5,0.3,2.9-1.1c1.4-1.4,1.6-3,0.4-4.2
				c-2.5-2.6-5.3,4.6-8.7,1.1c-1.7-1.7-1.5-4.1,0.7-6.2c0.7-0.7,2-1.6,2.9-1.8l0.1,0.1c0.3,0.6,1.1,1.6,1.4,1.9v0.1l-0.4,0.4h-0.1
				c-0.7-0.8-0.9-0.9-1-0.9c-0.4-0.1-1.4,0.2-2.4,1.1c-1.4,1.3-1.3,2.7-0.4,3.7c1.1,1.1,1.9,0.8,4.3-1c1.7-1.2,3.1-1.5,4.3-0.2
				c1.4,1.4,2,4.2-0.8,6.9c-1,0.9-2.2,1.6-2.9,1.7l-0.1-0.1c-0.5-0.7-1.1-1.4-1.6-2v-0.1L338.3,251.5L338.3,251.5z"/>
			<path fill="none" d="M338.3,251.5L338.3,251.5c0.5,0.5,0.7,0.6,0.9,0.8c0.2,0.2,1.5,0.3,2.9-1.1c1.4-1.4,1.6-3,0.4-4.2
				c-2.5-2.6-5.3,4.6-8.7,1.1c-1.7-1.7-1.5-4.1,0.7-6.2c0.7-0.7,2-1.6,2.9-1.8l0.1,0.1c0.3,0.6,1.1,1.6,1.4,1.9v0.1l-0.4,0.4h-0.1
				c-0.7-0.8-0.9-0.9-1-0.9c-0.4-0.1-1.4,0.2-2.4,1.1c-1.4,1.3-1.3,2.7-0.4,3.7c1.1,1.1,1.9,0.8,4.3-1c1.7-1.2,3.1-1.5,4.3-0.2
				c1.4,1.4,2,4.2-0.8,6.9c-1,0.9-2.2,1.6-2.9,1.7l-0.1-0.1c-0.5-0.7-1.1-1.4-1.6-2v-0.1L338.3,251.5L338.3,251.5z"/>
			<path fill="#FFFFFF" d="M346.6,243.8L346.6,243.8c0.4,0.5,0.6,0.7,0.8,1c0.2,0.2,1.4,0.5,3.1-0.7c1.6-1.2,2-2.7,1-4.1
				c-2.1-2.9-5.9,3.7-8.7-0.2c-1.4-2-0.9-4.3,1.6-6c0.8-0.6,2.2-1.3,3.2-1.4l0.1,0.1c0.2,0.6,0.8,1.7,1.1,2.2v0.1l-0.5,0.3h-0.1
				c-0.6-0.8-0.7-1-0.9-1.1c-0.4-0.1-1.4-0.1-2.6,0.7c-1.6,1.1-1.6,2.5-0.9,3.5c1,1.3,1.8,1,4.4-0.3c1.9-1,3.2-1,4.3,0.5
				c1.1,1.6,1.3,4.4-1.8,6.7c-1.1,0.8-2.3,1.2-3.1,1.3l-0.1-0.1c-0.4-0.7-0.9-1.6-1.3-2.2v-0.1L346.6,243.8L346.6,243.8z"/>
			<path fill="none" d="M346.6,243.8L346.6,243.8c0.4,0.5,0.6,0.7,0.8,1c0.2,0.2,1.4,0.5,3.1-0.7c1.6-1.2,2-2.7,1-4.1
				c-2.1-2.9-5.9,3.7-8.7-0.2c-1.4-2-0.9-4.3,1.6-6c0.8-0.6,2.2-1.3,3.2-1.4l0.1,0.1c0.2,0.6,0.8,1.7,1.1,2.2v0.1l-0.5,0.3h-0.1
				c-0.6-0.8-0.7-1-0.9-1.1c-0.4-0.1-1.4-0.1-2.6,0.7c-1.6,1.1-1.6,2.5-0.9,3.5c1,1.3,1.8,1,4.4-0.3c1.9-1,3.2-1,4.3,0.5
				c1.1,1.6,1.3,4.4-1.8,6.7c-1.1,0.8-2.3,1.2-3.1,1.3l-0.1-0.1c-0.4-0.7-0.9-1.6-1.3-2.2v-0.1L346.6,243.8L346.6,243.8z"/>
			<path fill="#FFFFFF" d="M356,226.6L356,226.6c0.9-0.4,1.3-0.5,2-0.7c0.5-0.2,1.1-0.5,1.4-0.6c2.9,2.8,6.6,6.1,7.8,7.2
				c0.4-3.5,0.7-7.1,1-10.7c0.5-0.1,1.1-0.3,1.6-0.5c0.5-0.2,1.1-0.5,1.6-0.7l0.1,0.1l0.2,0.5l-0.1,0.1c-0.7,0.2-1.1,0.5-1.2,0.7
				c-0.1,0.2-0.1,0.4,1.4,4.3l0.7,1.7c1.5,3.8,1.6,4,1.9,4.1c0.2,0.1,0.7-0.1,1.4-0.3l0.1,0.1l0.2,0.5l-0.1,0.1
				c-0.8,0.3-1.7,0.5-2.5,0.8s-1.6,0.7-2.4,1l-0.1-0.1l-0.2-0.5l0.1-0.1c0.7-0.2,1.1-0.5,1.2-0.7c0.1-0.2,0.1-0.4-1.4-4.3l-1.6-4.1
				H369c-0.4,3.7-1.1,9.8-1,11l-0.4,0.1c-1-1.1-6.6-6.1-8.1-7.5h-0.1l1.6,4.1c1.5,3.8,1.6,4,1.9,4.1c0.2,0.1,0.7-0.1,1.3-0.2
				l0.1,0.1l0.2,0.5l-0.1,0.1c-0.6,0.2-1.3,0.4-1.9,0.7c-0.7,0.2-1.3,0.6-2,0.8l-0.1-0.1l-0.2-0.5l0.1-0.1c0.7-0.2,1.1-0.5,1.2-0.7
				c0.1-0.2,0.1-0.4-1.4-4.3l-0.7-1.7c-1.5-3.8-1.6-4-1.9-4.1c-0.2-0.1-0.7,0.1-1.4,0.3l-0.1-0.1L356,226.6L356,226.6z"/>
			<path fill="none" d="M356,226.6L356,226.6c0.9-0.4,1.3-0.5,2-0.7c0.5-0.2,1.1-0.5,1.4-0.6c2.9,2.8,6.6,6.1,7.8,7.2
				c0.4-3.5,0.7-7.1,1-10.7c0.5-0.1,1.1-0.3,1.6-0.5c0.5-0.2,1.1-0.5,1.6-0.7l0.1,0.1l0.2,0.5l-0.1,0.1c-0.7,0.2-1.1,0.5-1.2,0.7
				c-0.1,0.2-0.1,0.4,1.4,4.3l0.7,1.7c1.5,3.8,1.6,4,1.9,4.1c0.2,0.1,0.7-0.1,1.4-0.3l0.1,0.1l0.2,0.5l-0.1,0.1
				c-0.8,0.3-1.7,0.5-2.5,0.8s-1.6,0.7-2.4,1l-0.1-0.1l-0.2-0.5l0.1-0.1c0.7-0.2,1.1-0.5,1.2-0.7c0.1-0.2,0.1-0.4-1.4-4.3l-1.6-4.1
				H369c-0.4,3.7-1.1,9.8-1,11l-0.4,0.1c-1-1.1-6.6-6.1-8.1-7.5h-0.1l1.6,4.1c1.5,3.8,1.6,4,1.9,4.1c0.2,0.1,0.7-0.1,1.3-0.2
				l0.1,0.1l0.2,0.5l-0.1,0.1c-0.6,0.2-1.3,0.4-1.9,0.7c-0.7,0.2-1.3,0.6-2,0.8l-0.1-0.1l-0.2-0.5l0.1-0.1c0.7-0.2,1.1-0.5,1.2-0.7
				c0.1-0.2,0.1-0.4-1.4-4.3l-0.7-1.7c-1.5-3.8-1.6-4-1.9-4.1c-0.2-0.1-0.7,0.1-1.4,0.3l-0.1-0.1L356,226.6L356,226.6z"/>
			<path fill="#FFFFFF" d="M375.1,220L375.1,220c1-0.2,1.8-0.2,2.6-0.4c3.2-0.5,5.4-1,6.6-1.3l0.1,0.1c0.1,0.9,0.2,1.9,0.2,2.8
				l-0.1,0.1l-0.5,0.1l-0.1-0.1c-0.1-0.4-0.2-1.4-0.4-1.6s-1.7,0-3.1,0.2c-0.7,0.1-1.3,0.3-1.7,0.4c0.2,1.6,0.4,3.1,0.7,4.6
				c0.7-0.1,1.4-0.2,2-0.3c1-0.2,1.6-0.3,1.6-0.5c0.1-0.3,0.1-1,0-1.3l0.1-0.1l0.5-0.1l0.1,0.1c0.1,0.7,0.2,1.4,0.3,2.1
				c0.1,0.5,0.2,1.2,0.4,1.8l-0.1,0.1l-0.5,0.1l-0.1-0.1c-0.1-0.2-0.3-0.9-0.5-1.2c-0.1-0.2-0.7-0.2-2.2,0.1
				c-0.6,0.1-1.1,0.2-1.6,0.3c0.3,1.6,0.5,3.3,0.9,4.9c1-0.2,4.6-0.8,4.9-1.1c0.2-0.2,0.2-1.6,0.1-1.9l0.1-0.1l0.5-0.1l0.1,0.1
				c0.1,0.8,0.2,1.9,0.3,2.9l-0.1,0.1c-2.3,0.4-5,0.8-7.1,1.1c-0.4,0.1-0.9,0.2-1.5,0.4l-0.1-0.1l-0.1-0.4l0.1-0.1
				c0.5-0.4,0.7-0.5,0.7-0.6c0-0.2,0.1-0.4-0.9-6.1c-0.7-4.1-0.8-4.2-1-4.4c-0.2-0.1-0.7-0.1-1.4,0l0,0.1L375.1,220L375.1,220z"/>
			<path fill="none" d="M375.1,220L375.1,220c1-0.2,1.8-0.2,2.6-0.4c3.2-0.5,5.4-1,6.6-1.3l0.1,0.1c0.1,0.9,0.2,1.9,0.2,2.8
				l-0.1,0.1l-0.5,0.1l-0.1-0.1c-0.1-0.4-0.2-1.4-0.4-1.6s-1.7,0-3.1,0.2c-0.7,0.1-1.3,0.3-1.7,0.4c0.2,1.6,0.4,3.1,0.7,4.6
				c0.7-0.1,1.4-0.2,2-0.3c1-0.2,1.6-0.3,1.6-0.5c0.1-0.3,0.1-1,0-1.3l0.1-0.1l0.5-0.1l0.1,0.1c0.1,0.7,0.2,1.4,0.3,2.1
				c0.1,0.5,0.2,1.2,0.4,1.8l-0.1,0.1l-0.5,0.1l-0.1-0.1c-0.1-0.2-0.3-0.9-0.5-1.2c-0.1-0.2-0.7-0.2-2.2,0.1
				c-0.6,0.1-1.1,0.2-1.6,0.3c0.3,1.6,0.5,3.3,0.9,4.9c1-0.2,4.6-0.8,4.9-1.1c0.2-0.2,0.2-1.6,0.1-1.9l0.1-0.1l0.5-0.1l0.1,0.1
				c0.1,0.8,0.2,1.9,0.3,2.9l-0.1,0.1c-2.3,0.4-5,0.8-7.1,1.1c-0.4,0.1-0.9,0.2-1.5,0.4l-0.1-0.1l-0.1-0.4l0.1-0.1
				c0.5-0.4,0.7-0.5,0.7-0.6c0-0.2,0.1-0.4-0.9-6.1c-0.7-4.1-0.8-4.2-1-4.4c-0.2-0.1-0.7-0.1-1.4,0l0,0.1L375.1,220L375.1,220z"/>
			<path fill="#FFFFFF" d="M394.4,218.7c-1,0-1.4,0.1-2,0.1c-0.1,1.2-0.1,2.6-0.1,5.1c0,2.9,0,4.2,0.1,5.3c0.5,0.1,1,0.1,1.6,0.1
				c3.5,0,5.4-1.9,5.4-5.6C399.5,220.6,397.6,218.7,394.4,218.7L394.4,218.7z M388.7,217.8L388.7,217.8c1,0,1.8,0.1,2.6,0.1
				c0.9,0,1.8-0.1,2.9-0.1c4.6,0,7.2,1.6,7.2,5.8c0,3-2.1,6.6-7.1,6.6c-1.4,0-2.3-0.1-3.4-0.1c-0.4,0-0.9,0-1.6,0.1l-0.1-0.1v-0.4
				l0.1-0.1c0.6-0.2,0.7-0.4,0.8-0.5c0.1-0.2,0.1-0.4,0.1-6.2c0-4.1-0.1-4.3-0.2-4.5c-0.2-0.1-0.7-0.2-1.4-0.2l-0.1-0.1L388.7,217.8
				L388.7,217.8z"/>
			<path fill="none" d="M394.4,218.7c-1,0-1.4,0.1-2,0.1c-0.1,1.2-0.1,2.6-0.1,5.1c0,2.9,0,4.2,0.1,5.3c0.5,0.1,1,0.1,1.6,0.1
				c3.5,0,5.4-1.9,5.4-5.6C399.5,220.6,397.6,218.7,394.4,218.7L394.4,218.7z M388.7,217.8L388.7,217.8c1,0,1.8,0.1,2.6,0.1
				c0.9,0,1.8-0.1,2.9-0.1c4.6,0,7.2,1.6,7.2,5.8c0,3-2.1,6.6-7.1,6.6c-1.4,0-2.3-0.1-3.4-0.1c-0.4,0-0.9,0-1.6,0.1l-0.1-0.1v-0.4
				l0.1-0.1c0.6-0.2,0.7-0.4,0.8-0.5c0.1-0.2,0.1-0.4,0.1-6.2c0-4.1-0.1-4.3-0.2-4.5c-0.2-0.1-0.7-0.2-1.4-0.2l-0.1-0.1L388.7,217.8
				L388.7,217.8z"/>
			<path fill="#FFFFFF" d="M405,218.4L405,218.4c1,0.1,1.8,0.3,2.6,0.4c0.8,0.1,1.7,0.2,2.6,0.3l0.1,0.1l-0.1,0.5l-0.1,0.1
				c-0.7-0.1-1.2-0.1-1.4,0.1c-0.2,0.1-0.3,0.3-0.9,4.4l-0.2,1.8c-0.6,4.1-0.5,4.3-0.4,4.4c0.1,0.2,0.7,0.3,1.3,0.4l0.1,0.1
				l-0.1,0.5l-0.1,0.1c-0.9-0.2-1.7-0.4-2.6-0.5c-0.8-0.1-1.7-0.2-2.6-0.3l-0.1-0.1l0.1-0.5l0.1-0.1c0.7,0.1,1.2,0.1,1.4-0.1
				c0.2-0.1,0.3-0.3,0.9-4.4l0.2-1.8c0.6-4.1,0.5-4.3,0.4-4.4c-0.1-0.2-0.7-0.3-1.3-0.4l-0.1-0.1L405,218.4L405,218.4z"/>
			<path fill="none" d="M405,218.4L405,218.4c1,0.1,1.8,0.3,2.6,0.4c0.8,0.1,1.7,0.2,2.6,0.3l0.1,0.1l-0.1,0.5l-0.1,0.1
				c-0.7-0.1-1.2-0.1-1.4,0.1c-0.2,0.1-0.3,0.3-0.9,4.4l-0.2,1.8c-0.6,4.1-0.5,4.3-0.4,4.4c0.1,0.2,0.7,0.3,1.3,0.4l0.1,0.1
				l-0.1,0.5l-0.1,0.1c-0.9-0.2-1.7-0.4-2.6-0.5c-0.8-0.1-1.7-0.2-2.6-0.3l-0.1-0.1l0.1-0.5l0.1-0.1c0.7,0.1,1.2,0.1,1.4-0.1
				c0.2-0.1,0.3-0.3,0.9-4.4l0.2-1.8c0.6-4.1,0.5-4.3,0.4-4.4c-0.1-0.2-0.7-0.3-1.3-0.4l-0.1-0.1L405,218.4L405,218.4z"/>
			<path fill="#FFFFFF" d="M421.5,233c-0.2,0.3-0.4,0.6-0.7,0.9c-1.3,0.2-2.6,0.2-4.2-0.3c-3.4-1-6-4-4.9-8c1.1-3.8,4.4-5.6,8.7-4.4
				c1.4,0.4,3.1,1.3,3.8,1.7l0.1,0.1c-0.4,0.7-0.9,1.9-1,2.3l-0.1,0.1l-0.5-0.2l-0.1-0.1c0.1-0.4,0.2-0.9,0.2-1.3
				c-0.2-0.6-1.4-1.6-2.9-2c-3.2-0.9-5.3,1.2-6,3.6c-0.9,3.1,0.2,6.2,3.8,7.2c1,0.3,2.3,0.4,3.5,0L421.5,233L421.5,233z"/>
			<path fill="none" d="M421.5,233c-0.2,0.3-0.4,0.6-0.7,0.9c-1.3,0.2-2.6,0.2-4.2-0.3c-3.4-1-6-4-4.9-8c1.1-3.8,4.4-5.6,8.7-4.4
				c1.4,0.4,3.1,1.3,3.8,1.7l0.1,0.1c-0.4,0.7-0.9,1.9-1,2.3l-0.1,0.1l-0.5-0.2l-0.1-0.1c0.1-0.4,0.2-0.9,0.2-1.3
				c-0.2-0.6-1.4-1.6-2.9-2c-3.2-0.9-5.3,1.2-6,3.6c-0.9,3.1,0.2,6.2,3.8,7.2c1,0.3,2.3,0.4,3.5,0L421.5,233L421.5,233z"/>
			<path fill="#FFFFFF" d="M427.7,224.1L427.7,224.1c0.8,0.4,1.6,0.8,2.4,1.1s1.6,0.7,2.4,1v0.1l-0.2,0.5h-0.1
				c-0.6-0.3-1.1-0.4-1.4-0.4s-0.4,0.2-2,4l-0.7,1.6c-1.7,3.8-1.7,4-1.6,4.2c0.1,0.2,0.5,0.5,1.1,0.8v0.1l-0.2,0.5h-0.1
				c-0.8-0.4-1.6-0.8-2.3-1.1c-0.8-0.4-1.6-0.7-2.4-1v-0.1l0.2-0.5h0.1c0.6,0.3,1.1,0.4,1.4,0.4c0.2-0.1,0.4-0.2,2-4l0.7-1.6
				c1.7-3.8,1.7-4,1.6-4.2c-0.1-0.2-0.5-0.5-1.1-0.8v-0.1L427.7,224.1L427.7,224.1z"/>
			<path fill="none" d="M427.7,224.1L427.7,224.1c0.8,0.4,1.6,0.8,2.4,1.1s1.6,0.7,2.4,1v0.1l-0.2,0.5h-0.1
				c-0.6-0.3-1.1-0.4-1.4-0.4s-0.4,0.2-2,4l-0.7,1.6c-1.7,3.8-1.7,4-1.6,4.2c0.1,0.2,0.5,0.5,1.1,0.8v0.1l-0.2,0.5h-0.1
				c-0.8-0.4-1.6-0.8-2.3-1.1c-0.8-0.4-1.6-0.7-2.4-1v-0.1l0.2-0.5h0.1c0.6,0.3,1.1,0.4,1.4,0.4c0.2-0.1,0.4-0.2,2-4l0.7-1.6
				c1.7-3.8,1.7-4,1.6-4.2c-0.1-0.2-0.5-0.5-1.1-0.8v-0.1L427.7,224.1L427.7,224.1z"/>
			<path fill="#FFFFFF" d="M443.7,232.6L443.7,232.6c0.7,0.5,1.4,0.9,2,1.3c0.5,0.3,1.1,0.6,1.6,0.9v0.1l-0.3,0.4h-0.1
				c-0.6-0.4-1-0.5-1.3-0.4c-0.4,0.1-3.3,4.7-4,5.8c-1.1,1.8-1.9,3.2-2.4,4h-0.1c-0.3-0.4-0.9-0.9-1.2-1.1
				c-0.4-1.9-1.2-8.6-1.6-12.8h-0.1l-2.5,4c-2.2,3.5-2.2,3.7-2.2,3.9c0.1,0.2,0.5,0.5,1,0.9v0.1l-0.3,0.4h-0.1
				c-0.6-0.4-1.1-0.8-1.7-1.2c-0.6-0.4-1.2-0.7-1.9-1v-0.1l0.3-0.4h0.1c0.6,0.4,1.1,0.5,1.3,0.5c0.2-0.1,0.4-0.2,2.6-3.7l1-1.5
				c2.2-3.5,2.2-3.7,2.2-3.9c-0.1-0.2-0.5-0.5-1-0.9v-0.1l0.3-0.4h0.1c0.5,0.4,1.1,0.8,1.6,1.1c0.5,0.3,0.8,0.5,1.2,0.7
				c-0.1,1.3,1.2,10.9,1.4,13h0.1c0.3-0.5,1.3-2.1,2.5-4.2c2.2-3.5,2.2-3.7,2.2-3.9c-0.1-0.2-0.5-0.5-1-0.9v-0.1L443.7,232.6
				L443.7,232.6z"/>
			<path fill="none" d="M443.7,232.6L443.7,232.6c0.7,0.5,1.4,0.9,2,1.3c0.5,0.3,1.1,0.6,1.6,0.9v0.1l-0.3,0.4h-0.1
				c-0.6-0.4-1-0.5-1.3-0.4c-0.4,0.1-3.3,4.7-4,5.8c-1.1,1.8-1.9,3.2-2.4,4h-0.1c-0.3-0.4-0.9-0.9-1.2-1.1
				c-0.4-1.9-1.2-8.6-1.6-12.8h-0.1l-2.5,4c-2.2,3.5-2.2,3.7-2.2,3.9c0.1,0.2,0.5,0.5,1,0.9v0.1l-0.3,0.4h-0.1
				c-0.6-0.4-1.1-0.8-1.7-1.2c-0.6-0.4-1.2-0.7-1.9-1v-0.1l0.3-0.4h0.1c0.6,0.4,1.1,0.5,1.3,0.5c0.2-0.1,0.4-0.2,2.6-3.7l1-1.5
				c2.2-3.5,2.2-3.7,2.2-3.9c-0.1-0.2-0.5-0.5-1-0.9v-0.1l0.3-0.4h0.1c0.5,0.4,1.1,0.8,1.6,1.1c0.5,0.3,0.8,0.5,1.2,0.7
				c-0.1,1.3,1.2,10.9,1.4,13h0.1c0.3-0.5,1.3-2.1,2.5-4.2c2.2-3.5,2.2-3.7,2.2-3.9c-0.1-0.2-0.5-0.5-1-0.9v-0.1L443.7,232.6
				L443.7,232.6z"/>
			<path fill="#FFFFFF" d="M449.9,237.1L449.9,237.1c0.7,0.6,1.3,1.3,1.9,1.8c2.5,2.2,4.1,3.7,5,4.4v0.1c-0.7,0.6-1.4,1.3-2,1.9
				h-0.1l-0.4-0.4v-0.1c0.2-0.2,1-1.1,1-1.3c0-0.2-1-1.3-2-2.3c-0.5-0.5-1.1-0.9-1.3-1.1c-1.1,1.1-2.2,2.2-3.2,3.4
				c0.5,0.5,1,1,1.5,1.4c0.7,0.7,1.2,1,1.4,1c0.3-0.1,0.8-0.5,1-0.8h0.1l0.4,0.3v0.1c-0.5,0.5-1,1-1.4,1.6c-0.3,0.4-0.8,0.9-1.2,1.4
				h-0.1l-0.4-0.3v-0.1c0.2-0.2,0.5-0.8,0.7-1.1c0.1-0.2-0.3-0.7-1.4-1.7c-0.4-0.4-0.8-0.7-1.2-1c-1.1,1.2-2.2,2.5-3.3,3.7
				c0.7,0.7,3.4,3.1,3.8,3.2c0.2,0.1,1.4-0.8,1.6-1h0.1l0.4,0.4v0.1c-0.5,0.5-1.4,1.3-2.1,2h-0.2c-1.7-1.6-3.7-3.5-5.2-4.9
				c-0.3-0.3-0.7-0.6-1.2-1v-0.1l0.2-0.2h0.1c0.6,0.2,0.8,0.2,0.8,0.2c0.1-0.1,0.4-0.2,4.3-4.5c2.8-3.1,2.9-3.2,2.8-3.5
				c0-0.2-0.4-0.7-0.8-1.1v-0.1L449.9,237.1L449.9,237.1z"/>
			<path fill="none" d="M449.9,237.1L449.9,237.1c0.7,0.6,1.3,1.3,1.9,1.8c2.5,2.2,4.1,3.7,5,4.4v0.1c-0.7,0.6-1.4,1.3-2,1.9h-0.1
				l-0.4-0.4v-0.1c0.2-0.2,1-1.1,1-1.3c0-0.2-1-1.3-2-2.3c-0.5-0.5-1.1-0.9-1.3-1.1c-1.1,1.1-2.2,2.2-3.2,3.4c0.5,0.5,1,1,1.5,1.4
				c0.7,0.7,1.2,1,1.4,1c0.3-0.1,0.8-0.5,1-0.8h0.1l0.4,0.3v0.1c-0.5,0.5-1,1-1.4,1.6c-0.3,0.4-0.8,0.9-1.2,1.4h-0.1l-0.4-0.3v-0.1
				c0.2-0.2,0.5-0.8,0.7-1.1c0.1-0.2-0.3-0.7-1.4-1.7c-0.4-0.4-0.8-0.7-1.2-1c-1.1,1.2-2.2,2.5-3.3,3.7c0.7,0.7,3.4,3.1,3.8,3.2
				c0.2,0.1,1.4-0.8,1.6-1h0.1l0.4,0.4v0.1c-0.5,0.5-1.4,1.3-2.1,2h-0.2c-1.7-1.6-3.7-3.5-5.2-4.9c-0.3-0.3-0.7-0.6-1.2-1v-0.1
				l0.2-0.2h0.1c0.6,0.2,0.8,0.2,0.8,0.2c0.1-0.1,0.4-0.2,4.3-4.5c2.8-3.1,2.9-3.2,2.8-3.5c0-0.2-0.4-0.7-0.8-1.1v-0.1L449.9,237.1
				L449.9,237.1z"/>
			<path fill="#FFFFFF" d="M463,250.4L463,250.4c0.5,0.7,1,1.4,1.6,2.2c0.5,0.7,1.1,1.3,1.6,2v0.1l-0.4,0.3h-0.1
				c-0.4-0.5-0.8-0.9-1-1c-0.2-0.1-0.4,0-3.7,2.5l-1.4,1.1c-3.3,2.5-3.4,2.6-3.4,2.9c0,0.2,0.2,0.7,0.7,1.3v0.1l-0.4,0.3h-0.1
				c-0.5-0.7-1-1.4-1.5-2.2c-0.5-0.7-1.1-1.3-1.6-2v-0.1l0.4-0.3h0.1c0.4,0.5,0.8,0.9,1,1c0.2,0.1,0.4,0,3.7-2.5l1.4-1.1
				c3.3-2.5,3.4-2.6,3.4-2.9c0-0.2-0.2-0.7-0.7-1.3v-0.1L463,250.4L463,250.4z"/>
			<path fill="none" d="M463,250.4L463,250.4c0.5,0.7,1,1.4,1.6,2.2c0.5,0.7,1.1,1.3,1.6,2v0.1l-0.4,0.3h-0.1c-0.4-0.5-0.8-0.9-1-1
				c-0.2-0.1-0.4,0-3.7,2.5l-1.4,1.1c-3.3,2.5-3.4,2.6-3.4,2.9c0,0.2,0.2,0.7,0.7,1.3v0.1l-0.4,0.3h-0.1c-0.5-0.7-1-1.4-1.5-2.2
				c-0.5-0.7-1.1-1.3-1.6-2v-0.1l0.4-0.3h0.1c0.4,0.5,0.8,0.9,1,1c0.2,0.1,0.4,0,3.7-2.5l1.4-1.1c3.3-2.5,3.4-2.6,3.4-2.9
				c0-0.2-0.2-0.7-0.7-1.3v-0.1L463,250.4L463,250.4z"/>
			<path fill="#FFFFFF" d="M472.8,265.5L472.8,265.5c0.4,0.7,0.7,1.4,1.1,2.2c0.3,0.5,0.7,1,1,1.6v0.1l-0.5,0.2h-0.1
				c-0.3-0.6-0.6-1-1-1c-0.4-0.1-5.2,2.5-6.3,3.1c-1.9,1-3.2,1.9-4,2.3l-0.1-0.1c-0.1-0.4-0.4-1.3-0.5-1.5c0.6-1.9,3.2-8.1,4.9-12
				v-0.1l-4.1,2.2c-3.6,2-3.7,2.1-3.8,2.4c-0.1,0.2,0.1,0.7,0.5,1.3v0.1l-0.5,0.2h-0.1c-0.3-0.6-0.6-1.3-1-1.9s-0.7-1.2-1.1-1.8
				v-0.1l0.5-0.2h0.1c0.3,0.6,0.7,1,0.8,1.1c0.2,0.1,0.4,0.1,4-1.9l1.6-0.8c3.6-2,3.7-2.1,3.8-2.4c0.1-0.2-0.1-0.7-0.5-1.3v-0.1
				l0.5-0.2h0.1c0.3,0.6,0.5,1.2,0.9,1.8c0.2,0.5,0.5,0.8,0.7,1.1c-0.7,1.1-4.3,10.1-5,12v0.1c0.5-0.3,2.1-1.3,4.3-2.4
				c3.6-2,3.7-2.1,3.8-2.4c0.1-0.2-0.1-0.7-0.5-1.3v-0.1L472.8,265.5L472.8,265.5z"/>
			<path fill="none" d="M472.8,265.5L472.8,265.5c0.4,0.7,0.7,1.4,1.1,2.2c0.3,0.5,0.7,1,1,1.6v0.1l-0.5,0.2h-0.1
				c-0.3-0.6-0.6-1-1-1c-0.4-0.1-5.2,2.5-6.3,3.1c-1.9,1-3.2,1.9-4,2.3l-0.1-0.1c-0.1-0.4-0.4-1.3-0.5-1.5c0.6-1.9,3.2-8.1,4.9-12
				v-0.1l-4.1,2.2c-3.6,2-3.7,2.1-3.8,2.4c-0.1,0.2,0.1,0.7,0.5,1.3v0.1l-0.5,0.2h-0.1c-0.3-0.6-0.6-1.3-1-1.9s-0.7-1.2-1.1-1.8
				v-0.1l0.5-0.2h0.1c0.3,0.6,0.7,1,0.8,1.1c0.2,0.1,0.4,0.1,4-1.9l1.6-0.8c3.6-2,3.7-2.1,3.8-2.4c0.1-0.2-0.1-0.7-0.5-1.3v-0.1
				l0.5-0.2h0.1c0.3,0.6,0.5,1.2,0.9,1.8c0.2,0.5,0.5,0.8,0.7,1.1c-0.7,1.1-4.3,10.1-5,12v0.1c0.5-0.3,2.1-1.3,4.3-2.4
				c3.6-2,3.7-2.1,3.8-2.4c0.1-0.2-0.1-0.7-0.5-1.3v-0.1L472.8,265.5L472.8,265.5z"/>
			<path fill="#FFFFFF" d="M467.8,276.6L467.8,276.6c-0.7,0.3-0.9,0.4-1.2,0.5c-0.2,0.1-1,1.3-0.3,3.1c0.7,1.9,2,2.7,3.6,2.2
				c3.4-1.1-1.9-6.8,2.8-8.3c2.3-0.8,4.3,0.4,5.3,3.2c0.3,1,0.5,2.5,0.4,3.4l-0.1,0.1c-0.7,0.1-1.9,0.3-2.4,0.5l-0.1-0.1l-0.1-0.5
				l0.1-0.1c1-0.4,1.2-0.4,1.3-0.5c0.2-0.4,0.5-1.4,0.1-2.6c-0.6-1.8-1.9-2.3-3.1-1.9c-1.5,0.5-1.5,1.4-1,4.3c0.4,2,0.1,3.4-1.7,4
				c-1.9,0.6-4.7,0-5.9-3.7c-0.4-1.3-0.5-2.6-0.4-3.4l0.1-0.1c0.8-0.1,1.7-0.4,2.5-0.7l0.1,0.1L467.8,276.6L467.8,276.6z"/>
			<path fill="none" d="M467.8,276.6L467.8,276.6c-0.7,0.3-0.9,0.4-1.2,0.5c-0.2,0.1-1,1.3-0.3,3.1c0.7,1.9,2,2.7,3.6,2.2
				c3.4-1.1-1.9-6.8,2.8-8.3c2.3-0.8,4.3,0.4,5.3,3.2c0.3,1,0.5,2.5,0.4,3.4l-0.1,0.1c-0.7,0.1-1.9,0.3-2.4,0.5l-0.1-0.1l-0.1-0.5
				l0.1-0.1c1-0.4,1.2-0.4,1.3-0.5c0.2-0.4,0.5-1.4,0.1-2.6c-0.6-1.8-1.9-2.3-3.1-1.9c-1.5,0.5-1.5,1.4-1,4.3c0.4,2,0.1,3.4-1.7,4
				c-1.9,0.6-4.7,0-5.9-3.7c-0.4-1.3-0.5-2.6-0.4-3.4l0.1-0.1c0.8-0.1,1.7-0.4,2.5-0.7l0.1,0.1L467.8,276.6L467.8,276.6z"/>
			<path fill="#FFFFFF" d="M468.8,289.2L468.8,289.2c0.2,0.7,0.4,1.3,0.5,1.4c0.2,0.2,0.4,0.2,4.4-0.5c1.3-0.2,3.2-0.7,6-1.2
				c-0.1-0.7-0.2-1.3-0.3-1.8c-0.2-0.9-0.2-1.3-0.4-1.3c-0.2-0.1-0.3-0.1-1.7,0l-0.1-0.1l-0.1-0.5l0.1-0.1c1.3-0.2,2.1-0.4,2.8-0.6
				l0.1,0.1c0.2,1.7,0.5,3.7,0.8,5.2c0.3,1.6,0.7,3.6,1,5.2l-0.1,0.1c-0.7,0-1.5,0.2-2.8,0.4l-0.1-0.1l-0.1-0.5l0.1-0.1
				c1.3-0.4,1.4-0.4,1.6-0.5c0.1-0.2,0.1-0.5-0.1-1.4c-0.1-0.5-0.2-1.1-0.4-1.8c-2.8,0.5-4.8,0.7-6,1c-4.1,0.7-4.2,0.8-4.4,1
				c-0.1,0.2-0.1,0.7,0,1.4l-0.1,0.1l-0.5,0.1l-0.1-0.1c-0.1-0.9-0.2-1.7-0.4-2.6c-0.2-0.8-0.4-1.7-0.5-2.5l0.1-0.1L468.8,289.2
				L468.8,289.2z"/>
			<path fill="none" d="M468.8,289.2L468.8,289.2c0.2,0.7,0.4,1.3,0.5,1.4c0.2,0.2,0.4,0.2,4.4-0.5c1.3-0.2,3.2-0.7,6-1.2
				c-0.1-0.7-0.2-1.3-0.3-1.8c-0.2-0.9-0.2-1.3-0.4-1.3c-0.2-0.1-0.3-0.1-1.7,0l-0.1-0.1l-0.1-0.5l0.1-0.1c1.3-0.2,2.1-0.4,2.8-0.6
				l0.1,0.1c0.2,1.7,0.5,3.7,0.8,5.2c0.3,1.6,0.7,3.6,1,5.2l-0.1,0.1c-0.7,0-1.5,0.2-2.8,0.4l-0.1-0.1l-0.1-0.5l0.1-0.1
				c1.3-0.4,1.4-0.4,1.6-0.5c0.1-0.2,0.1-0.5-0.1-1.4c-0.1-0.5-0.2-1.1-0.4-1.8c-2.8,0.5-4.8,0.7-6,1c-4.1,0.7-4.2,0.8-4.4,1
				c-0.1,0.2-0.1,0.7,0,1.4l-0.1,0.1l-0.5,0.1l-0.1-0.1c-0.1-0.9-0.2-1.7-0.4-2.6c-0.2-0.8-0.4-1.7-0.5-2.5l0.1-0.1L468.8,289.2
				L468.8,289.2z"/>
			<path fill="#FFFFFF" d="M482,297.5L482,297.5c0.1,1,0.1,1.8,0.1,2.6c0.1,0.8,0.1,1.7,0.2,2.6l-0.1,0.1h-0.5l-0.1-0.1
				c-0.1-0.7-0.2-1.2-0.3-1.4c-0.2-0.2-0.4-0.2-4.5,0l-1.8,0.1c-4.1,0.2-4.3,0.3-4.4,0.5c-0.1,0.2-0.2,0.7-0.2,1.4l-0.1,0.1h-0.5
				l-0.1-0.1c0-0.9,0-1.7-0.1-2.6s-0.1-1.7-0.2-2.6l0.1-0.1h0.5l0.1,0.1c0.1,0.7,0.2,1.2,0.3,1.4c0.2,0.2,0.4,0.2,4.5,0l1.8-0.1
				c4.1-0.2,4.3-0.3,4.4-0.5c0.1-0.2,0.2-0.7,0.2-1.4l0.1-0.1H482L482,297.5z"/>
			<path fill="none" d="M482,297.5L482,297.5c0.1,1,0.1,1.8,0.1,2.6c0.1,0.8,0.1,1.7,0.2,2.6l-0.1,0.1h-0.5l-0.1-0.1
				c-0.1-0.7-0.2-1.2-0.3-1.4c-0.2-0.2-0.4-0.2-4.5,0l-1.8,0.1c-4.1,0.2-4.3,0.3-4.4,0.5c-0.1,0.2-0.2,0.7-0.2,1.4l-0.1,0.1h-0.5
				l-0.1-0.1c0-0.9,0-1.7-0.1-2.6s-0.1-1.7-0.2-2.6l0.1-0.1h0.5l0.1,0.1c0.1,0.7,0.2,1.2,0.3,1.4c0.2,0.2,0.4,0.2,4.5,0l1.8-0.1
				c4.1-0.2,4.3-0.3,4.4-0.5c0.1-0.2,0.2-0.7,0.2-1.4l0.1-0.1H482L482,297.5z"/>
			<path fill="#FFFFFF" d="M470.4,307.3L470.4,307.3c0,0.7,0.1,1.3,0.2,1.4c0.2,0.2,0.3,0.3,4.4,0.5c1.3,0.1,3.2,0.1,6.1,0.3
				c0.1-0.7,0.1-1.3,0.1-1.9c0.1-0.9,0.1-1.3-0.1-1.4c-0.1-0.1-0.3-0.2-1.6-0.4l-0.1-0.1l0.1-0.5l0.1-0.1c1.3,0.1,2.2,0.1,2.8,0.1
				l0.1,0.1c-0.2,1.7-0.3,3.7-0.4,5.3c-0.1,1.6-0.2,3.7-0.2,5.3l-0.1,0.1c-0.7-0.1-1.5-0.2-2.8-0.3l-0.1-0.1l0.1-0.5l0.1-0.1
				c1.4-0.1,1.5-0.1,1.7-0.2c0.2-0.1,0.2-0.5,0.3-1.4c0.1-0.5,0.1-1.1,0.1-1.9c-2.9-0.2-4.8-0.4-6.1-0.5c-4.1-0.2-4.3-0.2-4.5-0.1
				c-0.2,0.2-0.3,0.7-0.3,1.4l-0.1,0.1l-0.5-0.1l-0.1-0.1c0.1-0.9,0.2-1.7,0.2-2.6c0.1-0.8,0.1-1.7,0.1-2.6l0.1-0.1L470.4,307.3
				L470.4,307.3z"/>
			<path fill="none" d="M470.4,307.3L470.4,307.3c0,0.7,0.1,1.3,0.2,1.4c0.2,0.2,0.3,0.3,4.4,0.5c1.3,0.1,3.2,0.1,6.1,0.3
				c0.1-0.7,0.1-1.3,0.1-1.9c0.1-0.9,0.1-1.3-0.1-1.4c-0.1-0.1-0.3-0.2-1.6-0.4l-0.1-0.1l0.1-0.5l0.1-0.1c1.3,0.1,2.2,0.1,2.8,0.1
				l0.1,0.1c-0.2,1.7-0.3,3.7-0.4,5.3c-0.1,1.6-0.2,3.7-0.2,5.3l-0.1,0.1c-0.7-0.1-1.5-0.2-2.8-0.3l-0.1-0.1l0.1-0.5l0.1-0.1
				c1.4-0.1,1.5-0.1,1.7-0.2c0.2-0.1,0.2-0.5,0.3-1.4c0.1-0.5,0.1-1.1,0.1-1.9c-2.9-0.2-4.8-0.4-6.1-0.5c-4.1-0.2-4.3-0.2-4.5-0.1
				c-0.2,0.2-0.3,0.7-0.3,1.4l-0.1,0.1l-0.5-0.1l-0.1-0.1c0.1-0.9,0.2-1.7,0.2-2.6c0.1-0.8,0.1-1.7,0.1-2.6l0.1-0.1L470.4,307.3
				L470.4,307.3z"/>
			<path fill="#FFFFFF" d="M479.2,328.1L479.2,328.1c-0.1,0.5-0.3,1.1-0.5,2c-0.2,0.8-0.3,1.6-0.4,2.1l-0.1,0.1l-0.5-0.1l-0.1-0.1
				c0.2-0.7,0.2-1.2,0.1-1.4c-0.1-0.2-0.2-0.3-4.3-1.3l-2.3-0.5c-3.2-0.8-4.4-2.8-3.6-6.2c0.7-2.7,2.2-4.5,5.2-3.8l3.1,0.8
				c4,1,4.2,1,4.4,0.8c0.2-0.1,0.4-0.6,0.5-1.3l0.1-0.1l0.5,0.1l0.1,0.1c-0.2,0.8-0.5,1.7-0.7,2.5c-0.2,0.8-0.4,1.7-0.5,2.6
				l-0.1,0.1l-0.5-0.1l-0.1-0.1c0.2-0.7,0.2-1.2,0.1-1.4c-0.1-0.2-0.3-0.3-4.3-1.3l-2.8-0.7c-1.4-0.4-3.2-0.1-3.9,2.7
				c-0.6,2.6,0.2,3.9,2.6,4.4l2.5,0.6c4,1,4.2,1,4.4,0.8c0.2-0.1,0.4-0.6,0.5-1.3l0.1-0.1H479.2L479.2,328.1z"/>
			<path fill="none" d="M479.2,328.1L479.2,328.1c-0.1,0.5-0.3,1.1-0.5,2c-0.2,0.8-0.3,1.6-0.4,2.1l-0.1,0.1l-0.5-0.1l-0.1-0.1
				c0.2-0.7,0.2-1.2,0.1-1.4c-0.1-0.2-0.2-0.3-4.3-1.3l-2.3-0.5c-3.2-0.8-4.4-2.8-3.6-6.2c0.7-2.7,2.2-4.5,5.2-3.8l3.1,0.8
				c4,1,4.2,1,4.4,0.8c0.2-0.1,0.4-0.6,0.5-1.3l0.1-0.1l0.5,0.1l0.1,0.1c-0.2,0.8-0.5,1.7-0.7,2.5c-0.2,0.8-0.4,1.7-0.5,2.6
				l-0.1,0.1l-0.5-0.1l-0.1-0.1c0.2-0.7,0.2-1.2,0.1-1.4c-0.1-0.2-0.3-0.3-4.3-1.3l-2.8-0.7c-1.4-0.4-3.2-0.1-3.9,2.7
				c-0.6,2.6,0.2,3.9,2.6,4.4l2.5,0.6c4,1,4.2,1,4.4,0.8c0.2-0.1,0.4-0.6,0.5-1.3l0.1-0.1H479.2L479.2,328.1z"/>
			<path fill="#FFFFFF" d="M465.2,332.9L465.2,332.9c-0.3,0.7-0.4,1.2-0.4,1.4c0.1,0.2,0.2,0.4,4,2c1.2,0.5,3,1.3,5.6,2.3
				c0.3-0.7,0.5-1.1,0.8-1.7c0.4-0.8,0.5-1.2,0.4-1.4c-0.1-0.2-0.2-0.2-1.4-0.9l-0.1-0.1l0.2-0.5h0.1c1.2,0.5,2,0.8,2.6,1v0.1
				c-0.7,1.5-1.6,3.4-2.2,4.8c-0.7,1.4-1.4,3.4-2,4.9h-0.1c-0.5-0.4-1.3-0.7-2.5-1.2v-0.1l0.2-0.5l0.1-0.1c1.3,0.4,1.4,0.5,1.6,0.4
				c0.2-0.1,0.4-0.4,0.7-1.2c0.2-0.5,0.4-1,0.7-1.7c-2.6-1.2-4.4-2-5.6-2.6c-3.8-1.7-4-1.7-4.2-1.6c-0.2,0.1-0.5,0.5-0.8,1.1H463
				l-0.5-0.2v-0.1c0.4-0.8,0.8-1.6,1.1-2.3s0.7-1.6,1-2.4h0.1L465.2,332.9L465.2,332.9z"/>
			<path fill="none" d="M465.2,332.9L465.2,332.9c-0.3,0.7-0.4,1.2-0.4,1.4c0.1,0.2,0.2,0.4,4,2c1.2,0.5,3,1.3,5.6,2.3
				c0.3-0.7,0.5-1.1,0.8-1.7c0.4-0.8,0.5-1.2,0.4-1.4c-0.1-0.2-0.2-0.2-1.4-0.9l-0.1-0.1l0.2-0.5h0.1c1.2,0.5,2,0.8,2.6,1v0.1
				c-0.7,1.5-1.6,3.4-2.2,4.8c-0.7,1.4-1.4,3.4-2,4.9h-0.1c-0.5-0.4-1.3-0.7-2.5-1.2v-0.1l0.2-0.5l0.1-0.1c1.3,0.4,1.4,0.5,1.6,0.4
				c0.2-0.1,0.4-0.4,0.7-1.2c0.2-0.5,0.4-1,0.7-1.7c-2.6-1.2-4.4-2-5.6-2.6c-3.8-1.7-4-1.7-4.2-1.6c-0.2,0.1-0.5,0.5-0.8,1.1H463
				l-0.5-0.2v-0.1c0.4-0.8,0.8-1.6,1.1-2.3s0.7-1.6,1-2.4h0.1L465.2,332.9L465.2,332.9z"/>
			<path fill="#FFFFFF" d="M471.3,347.7L471.3,347.7c-0.5,0.8-1,1.5-1.5,2.2c-1.8,2.8-2.9,4.7-3.5,5.7l-0.1,0.1
				c-0.7-0.6-1.5-1.1-2.2-1.7v-0.1l0.3-0.4h0.1c0.3,0.2,1.3,0.8,1.4,0.7c0.2-0.1,1.1-1.3,1.9-2.4c0.4-0.6,0.7-1.2,0.9-1.5
				c-1.3-0.9-2.6-1.7-3.8-2.6c-0.4,0.5-0.8,1.1-1.1,1.7c-0.5,0.8-0.8,1.4-0.7,1.6c0.2,0.3,0.7,0.7,0.9,0.8v0.1l-0.2,0.4h-0.1
				c-0.6-0.4-1.1-0.8-1.7-1.2c-0.4-0.2-1-0.6-1.6-1v-0.1l0.2-0.4h0.1c0.2,0.1,0.9,0.4,1.2,0.5c0.2,0.1,0.7-0.4,1.4-1.7
				c0.3-0.5,0.5-0.9,0.8-1.3c-1.4-0.9-2.8-1.8-4.2-2.6c-0.5,0.8-2.5,3.9-2.5,4.3c0,0.2,1.1,1.3,1.3,1.4v0.1l-0.3,0.5h-0.1
				c-0.6-0.5-1.6-1.2-2.3-1.7v-0.2c1.3-2,2.8-4.2,4-6c0.2-0.4,0.5-0.8,0.8-1.3h0.1l0.3,0.2l0.1,0.1c-0.1,0.7-0.1,0.8,0,0.9
				c0.1,0.1,0.2,0.3,5.2,3.4c3.5,2.2,3.7,2.3,3.9,2.2c0.2-0.1,0.6-0.5,1-1h0.1L471.3,347.7L471.3,347.7z"/>
			<path fill="none" d="M471.3,347.7L471.3,347.7c-0.5,0.8-1,1.5-1.5,2.2c-1.8,2.8-2.9,4.7-3.5,5.7l-0.1,0.1
				c-0.7-0.6-1.5-1.1-2.2-1.7v-0.1l0.3-0.4h0.1c0.3,0.2,1.3,0.8,1.4,0.7c0.2-0.1,1.1-1.3,1.9-2.4c0.4-0.6,0.7-1.2,0.9-1.5
				c-1.3-0.9-2.6-1.7-3.8-2.6c-0.4,0.5-0.8,1.1-1.1,1.7c-0.5,0.8-0.8,1.4-0.7,1.6c0.2,0.3,0.7,0.7,0.9,0.8v0.1l-0.2,0.4h-0.1
				c-0.6-0.4-1.1-0.8-1.7-1.2c-0.4-0.2-1-0.6-1.6-1v-0.1l0.2-0.4h0.1c0.2,0.1,0.9,0.4,1.2,0.5c0.2,0.1,0.7-0.4,1.4-1.7
				c0.3-0.5,0.5-0.9,0.8-1.3c-1.4-0.9-2.8-1.8-4.2-2.6c-0.5,0.8-2.5,3.9-2.5,4.3c0,0.2,1.1,1.3,1.3,1.4v0.1l-0.3,0.5h-0.1
				c-0.6-0.5-1.6-1.2-2.3-1.7v-0.2c1.3-2,2.8-4.2,4-6c0.2-0.4,0.5-0.8,0.8-1.3h0.1l0.3,0.2l0.1,0.1c-0.1,0.7-0.1,0.8,0,0.9
				c0.1,0.1,0.2,0.3,5.2,3.4c3.5,2.2,3.7,2.3,3.9,2.2c0.2-0.1,0.6-0.5,1-1h0.1L471.3,347.7L471.3,347.7z"/>
		</g>
	</g>
</g>
</svg>
